<?xml version="1.0" encoding="utf-8"?>
<!-- Generator: Adobe Illustrator 19.0.0, SVG Export Plug-In . SVG Version: 6.00 Build 0)  -->
<svg version="1.1" xmlns="http://www.w3.org/2000/svg" xmlns:xlink="http://www.w3.org/1999/xlink" x="0px" y="0px"
	 viewBox="0 0 712 626" style="enable-background:new 0 0 712 626;" xml:space="preserve">
<style type="text/css">
	.st0{display:none;}
	.st1{display:inline;fill:#9092FF;}
	.st2{display:inline;opacity:0.6;}
	.st3{opacity:0.6;}
	.st4{clip-path:url(#SVGID_2_);fill:url(#SVGID_3_);}
	.st5{opacity:0.6;fill:#737AFF;}
	.st6{fill:#737AFF;}
	.st7{fill:#F1F1FF;}
	.st8{fill:#E0E4FF;}
	.st9{fill:#0F0F6A;}
	.st10{fill:#4B45B7;}
	.st11{fill:#C18C37;}
	.st12{fill:#EAD1AD;}
	.st13{fill:#E5B28F;}
	.st14{fill:#E2A1D0;}
	.st15{fill:#E090C6;}
	.st16{fill:#D7DAFF;}
	.st17{fill:#2D2D91;}
	.st18{fill:#5654A6;}
	.st19{opacity:0.5;fill:#0F0F6A;}
	.st20{fill:#AA6396;}
	.st21{fill:#D36397;}
	.st22{fill:#3A309A;}
	.st23{fill:#EFF2FF;}
	.st24{opacity:0.6;fill:#9092FF;}
	.st25{fill:#B8BCFF;}
	.st26{fill:#9092FF;}
	.st27{fill:#FFFFFF;}
	.st28{fill:#C63E7D;}
	.st29{fill:#D0DDFF;}
	.st30{fill:#D98EBE;}
	.st31{fill:none;stroke:#4B4590;stroke-width:0.5;stroke-linecap:round;stroke-miterlimit:10;}
	.st32{fill:#1D2BCB;}
	.st33{fill:#2E3179;}
	.st34{fill:#992862;}
	.st35{fill:#444BED;}
	.st36{fill:#DBBE96;}
	.st37{fill:#4B4590;}
	.st38{fill:#E879B2;}
	.st39{fill:#E4C3AD;}
	.st40{fill:#F7D7CA;}
	.st41{fill:#818FFF;}
	.st42{enable-background:new    ;}
</style>
<g id="BACKGROUND" class="st0">
	<rect x="-852.6" y="46.6" class="st1" width="500" height="500"/>
	<g class="st2">
		<defs>
			<rect id="SVGID_1_" x="-852.6" y="46.6" class="st3" width="500" height="500"/>
		</defs>
		<clipPath id="SVGID_2_">
			<use xlink:href="#SVGID_1_"  style="overflow:visible;"/>
		</clipPath>
		<radialGradient id="SVGID_3_" cx="-601.5994" cy="354.6184" r="499.2279" gradientUnits="userSpaceOnUse">
			<stop  offset="0" style="stop-color:#FFFFFF"/>
			<stop  offset="0.1172" style="stop-color:#FFFFFF;stop-opacity:0.8828"/>
			<stop  offset="1" style="stop-color:#FFFFFF;stop-opacity:0"/>
		</radialGradient>
		<path class="st4" d="M-894.4,220.8l144.1-83.2l26.4,15.3l-24.7,14.2l-10.8-6.2l-0.3,0.4l10.6,6.1l-132.2,76.3l0.3,0.4l132.4-76.4
			l26.4,15.3l-24.7,14.2l-12.6-7.3l-0.3,0.4l12.3,7.1L-867.6,267l0.3,0.4l120.7-69.6l26.4,15.3l-24.7,14.2l-14.4-8.3l-0.3,0.4
			l14.1,8.2l-108.7,62.7l0.3,0.4l109-62.9l26.4,15.3l-24.7,14.2l-16.2-9.3l-0.3,0.4l15.9,9.2l-97,56l0.3,0.4l97.2-56.1l26.4,15.3
			l-24.7,14.2l-17.9-10.4l-0.3,0.4l17.7,10.2l-85.3,49.2l0.3,0.4l85.5-49.3l26.4,15.3l-24.7,14.2l-19.7-11.4l-0.3,0.4l19.5,11.2
			l-73.6,42.4l0.3,0.4l73.8-42.6l26.4,15.3l-24.7,14.2l-21.5-12.4l-0.3,0.4l21.2,12.3l-61.8,35.7l0.3,0.4l62.1-35.8l26.4,15.3
			l-24.7,14.2l-23.3-13.4l-0.3,0.4l23,13.3l-50.1,28.9l0.3,0.4l50.4-29.1l26.4,15.3l-24.7,14.2l-25.1-14.5l-0.3,0.4l24.8,14.3
			l-38.4,22.2l0.3,0.4l13.5-7.8l26.4,15.3l-24.7,14.2l-1.7-1l-0.3,0.4l1.4,0.8l-1.5,0.9l0.3,0.4l1.8-1l26.4,15.3l-15,8.6l0.3,0.4
			l15.2-8.8l26.4,15.3l-24.7,14.2l-30.4-17.6l-0.3,0.4l30.2,17.4l-3.2,1.9l0.3,0.4l3.5-2l26.4,15.3l-16.7,9.6l0.3,0.4l16.9-9.8
			l26.4,15.3l-24.7,14.2l-59.1-34.1l-0.3,0.4l58.9,34l-4.6,2.7h1l4.1-2.4l4.1,2.4h1l-4.6-2.7l24.7-14.2l26.4,15.3l-2.9,1.6h1
			l2.4-1.4l2.4,1.4h1l-2.9-1.6l24.7-14.2l27.5,15.9h1l-28-16.2l24.7-14.2l52.7,30.4h1l-53.2-30.7l24.7-14.2l77.8,44.9h1l-78.3-45.2
			l24.7-14.2l103,59.4h1l-103.5-59.7l24.7-14.2l128.1,74h1l-128.6-74.3l24.7-14.2l153.3,88.5h1l-153.8-88.8l24.7-14.2l156.9,90.6
			l0.3-0.4l-156.7-90.4l24.7-14.2l131.7,76.1l0.3-0.4l-131.5-75.9l24.7-14.2l106.6,61.5l0.3-0.4L-421,414.3l24.7-14.2l81.4,47
			l0.3-0.4l-81.2-46.9l24.7-14.2L-315,418l0.3-0.4l-56-32.3l2.9-1.6l-0.3-0.4l-3.1,1.8l-26.4-15.3l16.3-9.4l-0.3-0.4l-16.6,9.6
			l-26.4-15.3l24.7-14.2l85,49.1l0.3-0.4l-84.7-48.9l4.6-2.6l-0.3-0.4l-4.8,2.8l-26.4-15.3l18-10.4l-0.3-0.4l-18.3,10.5l-26.4-15.3
			l24.7-14.2l113.7,65.6l0.3-0.4l-113.4-65.5l6.3-3.6l-0.3-0.4l-6.6,3.8l-26.4-15.3l19.8-11.4l-0.3-0.4l-20,11.5l-26.5-15.3
			l24.7-14.2l142.4,82.2l0.3-0.4l-142.2-82.1l8-4.6l-0.3-0.4l-8.3,4.8l-26.4-15.3l21.5-12.4l-0.3-0.4l-21.7,12.5l-26.4-15.3
			l24.7-14.2l171.2,98.8l0.3-0.4l-170.9-98.7l9.8-5.6l-0.3-0.4l-10,5.8l-26.4-15.3l23.2-13.4l-0.3-0.4l-23.5,13.5l-26.4-15.3
			l24.7-14.2L-315,272.7l0.3-0.4L-514.4,157l11.5-6.6l-0.3-0.4l-11.7,6.8l-26.4-15.3l24.7-14.2L-315,243.7l0.3-0.4l-201.9-116.5l0,0
			l0,0l-26.4-15.3l13.2-7.6l-0.3-0.4l-13.5,7.8L-570,95.8l26.7-15.4l-0.3-0.4l-26.9,15.5L-597,80.3l40.1-23.2l-0.3-0.4L-597.5,80
			l-26.4-15.3l53.6-30.9l-0.3-0.4l-53.8,31.1l-134.9-77.9l-0.3,0.4l134.6,77.7l-24.7,14.2l-109.7-63.3l-0.3,0.4l109.4,63.2
			l-24.7,14.2l-84.5-48.8l-0.3,0.4l84.3,48.7l-24.7,14.2l-59.4-34.3l-0.3,0.4l59.1,34.1l-24.7,14.2l-34.2-19.7l-0.3,0.4l33.9,19.6
			l-24.7,14.2l-9-5.2l-0.3,0.4l8.8,5.1l-143.9,83L-894.4,220.8z M-748,167.4l24.7-14.2l26.4,15.3l-24.7,14.2L-748,167.4z
			 M-640.7,229.9l26.4,15.3l-24.7,14.2l-26.4-15.3L-640.7,229.9z M-640.7,229.3l-26.4-15.3l24.7-14.2l26.4,15.3L-640.7,229.3z
			 M-608.4,335.7L-582,351l-24.7,14.2l-26.4-15.3L-608.4,335.7z M-608.4,335.1l-26.4-15.3l24.7-14.2l26.4,15.3L-608.4,335.1z
			 M-580.2,381.1l-24.7,14.2l-26.4-15.3l24.7-14.2L-580.2,381.1z M-606.1,365.5l24.7-14.2l26.4,15.3l-24.7,14.2L-606.1,365.5z
			 M-581,351l24.7-14.2l26.4,15.3l-24.7,14.2L-581,351z M-581.5,350.7l-26.4-15.3l24.7-14.2l26.4,15.3L-581.5,350.7z M-609.7,305.4
			l24.7-14.2l26.4,15.3l-24.7,14.2L-609.7,305.4z M-610.2,305.1l-26.4-15.3l24.7-14.2l26.4,15.3L-610.2,305.1z M-612,275l-26.4-15.3
			l24.7-14.2l26.4,15.3L-612,275z M-638.9,260l26.4,15.3l-24.7,14.2l-26.4-15.3L-638.9,260z M-637.1,290.1l26.4,15.3l-24.7,14.2
			l-26.4-15.3L-637.1,290.1z M-635.4,320.2l26.4,15.3l-24.7,14.2l-26.4-15.3L-635.4,320.2z M-607.1,365.5l-24.7,14.2l-26.4-15.3
			l24.7-14.2L-607.1,365.5z M-605.3,395.6l-24.7,14.2l-26.4-15.3l24.7-14.2L-605.3,395.6z M-603.6,425.7l-24.7,14.2l-26.4-15.3
			l24.7-14.2L-603.6,425.7z M-629.5,410.1l24.7-14.2l26.4,15.3l-24.7,14.2L-629.5,410.1z M-604.3,395.6l24.7-14.2l26.4,15.3
			l-24.7,14.2L-604.3,395.6z M-579.2,381.1l24.7-14.2l26.4,15.3l-24.7,14.2L-579.2,381.1z M-554,366.6l24.7-14.2l26.4,15.3
			l-24.7,14.2L-554,366.6z M-529.3,351.7l-26.4-15.3l24.7-14.2l26.4,15.3L-529.3,351.7z M-556.3,336.2l-26.4-15.3l24.7-14.2
			l26.4,15.3L-556.3,336.2z M-584.5,290.8l24.7-14.2l26.4,15.3l-24.7,14.2L-584.5,290.8z M-585,290.5l-26.4-15.3l24.7-14.2
			l26.4,15.3L-585,290.5z M-613.3,245.2l24.7-14.2l26.4,15.3l-24.7,14.2L-613.3,245.2z M-613.8,244.9l-26.4-15.3l24.7-14.2
			l26.4,15.3L-613.8,244.9z M-642,199.5l24.7-14.2l26.4,15.3l-24.7,14.2L-642,199.5z M-643.8,169.5l24.7-14.2l26.4,15.3l-24.7,14.2
			L-643.8,169.5z M-617.8,185l-24.7,14.2l-26.4-15.3l24.7-14.2L-617.8,185z M-643,199.5l-24.7,14.2l-26.4-15.3l24.7-14.2L-643,199.5
			z M-667.7,214.4l26.4,15.3l-24.7,14.2l-26.4-15.3L-667.7,214.4z M-665.9,244.4l26.4,15.3l-24.7,14.2l-26.4-15.3L-665.9,244.4z
			 M-664.1,274.5l26.4,15.3l-24.7,14.2l-26.4-15.3L-664.1,274.5z M-662.3,304.6l26.4,15.3l-24.7,14.2l-26.4-15.3L-662.3,304.6z
			 M-634.1,350l-24.7,14.2l-26.4-15.3l24.7-14.2L-634.1,350z M-632.3,380l-24.7,14.2l-26.4-15.3l24.7-14.2L-632.3,380z
			 M-630.5,410.1l-24.7,14.2l-26.4-15.3l24.7-14.2L-630.5,410.1z M-628.7,440.2l-24.7,14.2l-26.4-15.3l24.7-14.2L-628.7,440.2z
			 M-627,470.3l-24.7,14.2l-26.4-15.3l24.7-14.2L-627,470.3z M-652.9,454.7l24.7-14.2l26.4,15.3l-24.7,14.2L-652.9,454.7z
			 M-627.7,440.2l24.7-14.2l26.4,15.3l-24.7,14.2L-627.7,440.2z M-602.6,425.7l24.7-14.2l26.4,15.3l-24.7,14.2L-602.6,425.7z
			 M-577.4,411.2l24.7-14.2l26.4,15.3l-24.7,14.2L-577.4,411.2z M-552.2,396.6l24.7-14.2l26.4,15.3l-24.7,14.2L-552.2,396.6z
			 M-527.1,382.1l24.7-14.2l26.4,15.3l-24.7,14.2L-527.1,382.1z M-501.9,367.6l24.7-14.2l26.4,15.3l-24.7,14.2L-501.9,367.6z
			 M-502.4,367.3l-26.4-15.3l24.7-14.2l26.4,15.3L-502.4,367.3z M-504.2,337.2l-26.4-15.3l24.7-14.2l26.4,15.3L-504.2,337.2z
			 M-531.1,321.7l-26.4-15.3l24.7-14.2l26.4,15.3L-531.1,321.7z M-559.4,276.3l24.7-14.2l26.4,15.3l-24.7,14.2L-559.4,276.3z
			 M-559.9,276l-26.4-15.3l24.7-14.2l26.4,15.3L-559.9,276z M-588.1,230.7l24.7-14.2l26.4,15.3l-24.7,14.2L-588.1,230.7z
			 M-588.6,230.4l-26.4-15.3l24.7-14.2l26.4,15.3L-588.6,230.4z M-616.8,185l24.7-14.2l26.4,15.3l-24.7,14.2L-616.8,185z
			 M-618.6,154.9l24.7-14.2l26.4,15.3l-24.7,14.2L-618.6,154.9z M-619.1,154.7l-26.4-15.3l24.7-14.2l26.4,15.3L-619.1,154.7z
			 M-619.6,154.9l-24.7,14.2l-26.4-15.3l24.7-14.2L-619.6,154.9z M-644.8,169.5l-24.7,14.2l-26.4-15.3l24.7-14.2L-644.8,169.5z
			 M-669.9,184l-24.7,14.2l-26.4-15.3l24.7-14.2L-669.9,184z M-694.6,198.8l26.4,15.3l-24.7,14.2l-26.4-15.3L-694.6,198.8z
			 M-692.8,228.9l26.4,15.3l-24.7,14.2l-26.4-15.3L-692.8,228.9z M-691,259l26.4,15.3l-24.7,14.2l-26.4-15.3L-691,259z M-689.3,289
			l26.4,15.3l-24.7,14.2l-26.4-15.3L-689.3,289z M-661,334.4l-24.7,14.2l-26.4-15.3l24.7-14.2L-661,334.4z M-659.2,364.5l-24.7,14.2
			l-26.4-15.3l24.7-14.2L-659.2,364.5z M-657.5,394.6l-24.7,14.2l-26.4-15.3l24.7-14.2L-657.5,394.6z M-655.7,424.6l-24.7,14.2
			l-26.4-15.3l24.7-14.2L-655.7,424.6z M-680.8,439.2l-24.7,14.2l-26.4-15.3l24.7-14.2L-680.8,439.2z M-680.3,439.5l26.4,15.3
			l-24.7,14.2l-26.4-15.3L-680.3,439.5z M-652.1,484.8l-24.7,14.2l-26.4-15.3l24.7-14.2L-652.1,484.8z M-651.6,485.1l26.4,15.3
			l-24.7,14.2l-26.4-15.3L-651.6,485.1z M-651.1,484.8l24.7-14.2l26.4,15.3l-24.7,14.2L-651.1,484.8z M-625.9,470.3l24.7-14.2
			l26.4,15.3l-24.7,14.2L-625.9,470.3z M-600.8,455.8l24.7-14.2l26.4,15.3l-24.7,14.2L-600.8,455.8z M-575.6,441.2l24.7-14.2
			l26.4,15.3l-24.7,14.2L-575.6,441.2z M-550.4,426.7l24.7-14.2l26.4,15.3L-524,442L-550.4,426.7z M-525.3,412.2l24.7-14.2
			l26.4,15.3l-24.7,14.2L-525.3,412.2z M-500.1,397.7l24.7-14.2l26.4,15.3l-24.7,14.2L-500.1,397.7z M-474.9,383.2l24.7-14.2
			l26.4,15.3l-24.7,14.2L-474.9,383.2z M-450.3,368.3l-26.4-15.3l24.7-14.2l26.4,15.3L-450.3,368.3z M-477.2,352.8l-26.4-15.3
			l24.7-14.2l26.4,15.3L-477.2,352.8z M-479,322.7l-26.4-15.3l24.7-14.2l26.4,15.3L-479,322.7z M-506,307.1l-26.4-15.3l24.7-14.2
			l26.4,15.3L-506,307.1z M-534.2,261.8l24.7-14.2l26.4,15.3l-24.7,14.2L-534.2,261.8z M-534.7,261.5l-26.4-15.3l24.7-14.2
			l26.4,15.3L-534.7,261.5z M-562.9,216.1l24.7-14.2l26.4,15.3l-24.7,14.2L-562.9,216.1z M-563.4,215.9l-26.4-15.3l24.7-14.2
			l26.4,15.3L-563.4,215.9z M-591.6,170.5l24.7-14.2l26.4,15.3l-24.7,14.2L-591.6,170.5z M-593.4,140.4l24.7-14.2l26.4,15.3
			l-24.7,14.2L-593.4,140.4z M-593.9,140.1l-26.4-15.3l24.7-14.2l26.4,15.3L-593.9,140.1z M-620.9,124.6l-26.4-15.3l24.7-14.2
			l26.4,15.3L-620.9,124.6z M-621.4,124.9l-24.7,14.2l-26.4-15.3l24.7-14.2L-621.4,124.9z M-646.5,139.4l-24.7,14.2l-26.4-15.3
			l24.7-14.2L-646.5,139.4z M-671.7,153.9l-24.7,14.2l-26.4-15.3l24.7-14.2L-671.7,153.9z M-746.2,197.5l24.7-14.2l26.4,15.3
			l-24.7,14.2L-746.2,197.5z M-744.4,227.6l24.7-14.2l26.4,15.3l-24.7,14.2L-744.4,227.6z M-742.7,257.6l24.7-14.2l26.4,15.3
			l-24.7,14.2L-742.7,257.6z M-740.9,287.7l24.7-14.2l26.4,15.3l-24.7,14.2L-740.9,287.7z M-739.1,317.8l24.7-14.2l26.4,15.3
			l-24.7,14.2L-739.1,317.8z M-737.3,347.9l24.7-14.2l26.4,15.3l-24.7,14.2L-737.3,347.9z M-735.5,378l24.7-14.2l26.4,15.3
			l-24.7,14.2L-735.5,378z M-709.1,393.8l26.4,15.3l-24.7,14.2l-26.4-15.3L-709.1,393.8z M-758.9,422.6l24.7-14.2l26.4,15.3
			l-24.7,14.2L-758.9,422.6z M-757.1,452.7l24.7-14.2l26.4,15.3l-24.7,14.2L-757.1,452.7z M-730.2,468.2l24.7-14.2l26.4,15.3
			l-24.7,14.2L-730.2,468.2z M-728.4,498.3l24.7-14.2l26.4,15.3l-24.7,14.2L-728.4,498.3z M-701.5,513.9l24.7-14.2l26.4,15.3
			l-24.7,14.2L-701.5,513.9z M-648.1,544.7l-26.4-15.3l24.7-14.2l26.4,15.3L-648.1,544.7z M-622.9,530.2l-26.4-15.3l24.7-14.2
			l26.4,15.3L-622.9,530.2z M-597.7,515.6l-26.4-15.3l24.7-14.2l26.4,15.3L-597.7,515.6z M-572.6,501.1l-26.4-15.3l24.7-14.2
			l26.4,15.3L-572.6,501.1z M-547.4,486.6l-26.4-15.3l24.7-14.2l26.4,15.3L-547.4,486.6z M-522.2,472.1l-26.4-15.3l24.7-14.2
			l26.4,15.3L-522.2,472.1z M-497,457.5l-26.4-15.3l24.7-14.2l26.4,15.3L-497,457.5z M-471.9,443l-26.4-15.3l24.7-14.2l26.4,15.3
			L-471.9,443z M-446.7,428.5l-26.4-15.3l24.7-14.2l26.4,15.3L-446.7,428.5z M-421.5,414l-26.4-15.3l24.7-14.2l26.4,15.3L-421.5,414
			z M-398.2,370l26.4,15.3l-24.7,14.2l-26.4-15.3L-398.2,370z M-398.7,369.7l-24.7,14.2l-26.4-15.3l24.7-14.2L-398.7,369.7z
			 M-426.9,324.3l26.4,15.3l-24.7,14.2l-26.4-15.3L-426.9,324.3z M-427.4,324l-24.7,14.2l-26.4-15.3l24.7-14.2L-427.4,324z
			 M-429.2,293.9l-24.7,14.2l-26.4-15.3l24.7-14.2L-429.2,293.9z M-456.1,278.4l-24.7,14.2l-26.4-15.3l24.7-14.2L-456.1,278.4z
			 M-457.9,248.3l-24.7,14.2l-26.4-15.3l24.7-14.2L-457.9,248.3z M-484.9,232.7l-24.7,14.2l-26.4-15.3l24.7-14.2L-484.9,232.7z
			 M-486.6,202.7l-24.7,14.2l-26.4-15.3l24.7-14.2L-486.6,202.7z M-513.6,187.1l-24.7,14.2l-26.4-15.3l24.7-14.2L-513.6,187.1z
			 M-515.4,157l-24.7,14.2l-26.4-15.3l24.7-14.2L-515.4,157z M-517.1,126.9l-24.7,14.2l-26.4-15.3l24.7-14.2L-517.1,126.9z
			 M-544.1,111.4l-24.7,14.2l-26.4-15.3l24.7-14.2L-544.1,111.4z M-571,95.8l-24.7,14.2l-26.4-15.3l24.7-14.2L-571,95.8z M-624.4,65
			l26.4,15.3l-24.7,14.2l-26.4-15.3L-624.4,65z M-649.6,79.5l26.4,15.3l-24.7,14.2l-26.4-15.3L-649.6,79.5z M-674.8,94l26.4,15.3
			l-24.7,14.2l-26.4-15.3L-674.8,94z M-699.9,108.6l26.4,15.3l-24.7,14.2l-26.4-15.3L-699.9,108.6z M-725.1,123.1l26.4,15.3
			l-24.7,14.2l-26.4-15.3L-725.1,123.1z"/>
	</g>
</g>
<g id="OBJECTS">
	<g>
		<ellipse class="st5" cx="120.2" cy="569.7" rx="61.2" ry="31.8"/>
		<ellipse class="st5" cx="264.3" cy="542.8" rx="61.2" ry="31.8"/>
		<ellipse class="st5" cx="602.2" cy="361.6" rx="61.2" ry="31.8"/>
		<g>
			<g>
				<polygon class="st6" points="179.1,224.5 124.2,256.4 116.4,347.4 148.8,367.7 214.7,325.9 210,228.2 197.5,230.8 188.5,219.3 
									"/>
				<polygon class="st7" points="124.2,256.4 133.7,274.7 149.9,265.3 148.8,367.7 116.4,347.4 				"/>
				<polygon class="st8" points="149.9,265.3 210,228.2 214.7,325.9 148.8,367.7 				"/>
				
					<ellipse transform="matrix(0.9885 0.1511 -0.1511 0.9885 42.7464 -22.9095)" class="st9" cx="172.1" cy="269.8" rx="2.5" ry="4.5"/>
				
					<ellipse transform="matrix(0.9885 0.1511 -0.1511 0.9885 41.1348 -26.0304)" class="st9" cx="191.8" cy="257.6" rx="2.5" ry="4.5"/>
				<polygon class="st8" points="116.4,347.4 133.1,341.1 148.8,367.7 				"/>
				<polyline class="st10" points="188.5,219.3 188.5,241.4 149.9,265.3 133.7,274.7 124.2,256.4 184.5,221.5 				"/>
			</g>
			<g>
				<path class="st9" d="M182.4,293.5c-1.2,0-2.3-0.4-3.4-1.1c-6.6-4.5-7.7-21.9-7.8-22.6l1.7-0.1c0,0.2,1.1,17.3,7,21.3
					c1.2,0.8,2.6,1,4.1,0.5c8.3-2.8,7.8-25.4,6.9-33.8l1.7-0.2c0.1,1.3,3.2,31.9-8,35.6C183.9,293.4,183.1,293.5,182.4,293.5z"/>
			</g>
		</g>
		<g>
			<g>
				<polygon class="st6" points="228.3,250.4 173.4,282.3 165.5,373.3 198,393.7 263.8,351.8 259.1,254.1 246.6,256.7 237.7,245.2 
									"/>
				<polygon class="st7" points="173.4,282.3 182.8,300.6 199,291.2 198,393.7 165.5,373.3 				"/>
				<polygon class="st8" points="199,291.2 259.1,254.1 263.8,351.8 198,393.7 				"/>
				
					<ellipse transform="matrix(0.9885 0.1511 -0.1511 0.9885 47.2262 -30.0381)" class="st9" cx="221.2" cy="295.7" rx="2.5" ry="4.5"/>
				
					<ellipse transform="matrix(0.9885 0.1511 -0.1511 0.9885 45.6131 -33.1581)" class="st9" cx="241" cy="283.5" rx="2.5" ry="4.5"/>
				<polygon class="st8" points="165.5,373.3 182.3,367 198,393.7 				"/>
				<polyline class="st10" points="237.7,245.2 237.7,267.3 199,291.2 182.8,300.6 173.4,282.3 233.6,247.4 				"/>
			</g>
			<g>
				<path class="st9" d="M231.6,319.4c-1.2,0-2.3-0.4-3.4-1.1c-6.6-4.5-7.7-21.9-7.8-22.6l1.7-0.1c0,0.2,1.1,17.3,7,21.3
					c1.2,0.8,2.6,1,4.1,0.5c8.3-2.8,7.8-25.4,6.9-33.8l1.7-0.2c0.1,1.3,3.2,31.9-8,35.6C233,319.3,232.3,319.4,231.6,319.4z"/>
			</g>
		</g>
		<g>
			<g>
				<path class="st9" d="M571.6,275.3c-0.1,0-0.1,0-0.2-0.1c-0.2-0.1-0.3-0.4-0.2-0.6l7.5-13.6c0.1-0.2,0.4-0.3,0.6-0.2
					c0.2,0.1,0.3,0.4,0.2,0.6l-7.5,13.6C571.9,275.2,571.8,275.3,571.6,275.3z"/>
			</g>
			<g>
				<polygon class="st11" points="583.6,263.7 564,275.1 561.1,307.6 572.8,314.9 596.3,300 594.6,265 590.2,265.9 587,261.8 				
					"/>
				<polygon class="st12" points="564,275.1 567.3,281.6 573.1,278.3 572.8,314.9 561.1,307.6 				"/>
				<polygon class="st13" points="573.1,278.3 594.6,265 596.3,300 572.8,314.9 				"/>
				
					<ellipse transform="matrix(0.9885 0.151 -0.151 0.9885 48.9369 -84.5529)" class="st9" cx="581.1" cy="279.9" rx="0.9" ry="1.6"/>
				
					<ellipse transform="matrix(0.9885 0.151 -0.151 0.9885 48.3651 -85.6771)" class="st9" cx="588.1" cy="275.5" rx="0.9" ry="1.6"/>
				<polygon class="st13" points="561.1,307.6 567.1,305.4 572.8,314.9 				"/>
			</g>
			<circle class="st14" cx="608.8" cy="180.2" r="12.8"/>
			<path class="st15" d="M591,242.1c0,0-1,13.9-1.4,16.7c-0.4,2.8-1,30.1,0.5,38.5c0.6,3.3-6.6,7.2-10.3,14.2
				c-4.3,8.2-6.1,18.3-8.7,22.8l0,0l-0.2,0.3c-0.4,0.7-0.7,1.2-0.9,1.6l-3.6,3.2c-1,0.9-1.6,2.1-1.7,3.4l-1.6,17.7
				c-0.1,1.1,0.6,2.2,1.7,2.5l0,0c1.2,0.4,2.5-0.3,2.9-1.5c1.9-5.6,6.8-20,6.8-20.7c8-11.7,26.6-32.8,29.4-38.9
				c3.1-6.9,9.9-39.8,9.9-39.8l5.8-13.5L591,242.1z"/>
			<path class="st14" d="M615.6,353.8c1.7-6.6,9.8-44.9,9.8-56.1c0-12.1-4-55.6-4-55.6l-31.3-0.8l-2.4,10.6l14.1,11.5
				c0,0,9.2,34.1,10,40.9c0.3,2.7-3.7,5.1-4,13.9c-0.4,12.1,1.6,42.8,1.6,43c0.1,0.4,12.5-1.1,12.5-1.1s12.7-2.1,11.6-3.8
				C632.8,355.2,617,356.1,615.6,353.8z"/>
			<path class="st8" d="M599,193c0,0-10.2-4.8-14,0c-3.8,4.8-14.9,27.4-16.2,34.2s1.3,22.5,2.6,26.8c1.3,4.3,6.8,0,6.8,0
				s1.7-20.8,2.1-22.5c0.4-1.7,8.5-22.1,8.5-22.1s2.6,10.2,4.3,14c1.7,3.8-2.1,14.9-3,17.9c-0.9,3,6.8,6,13.2,6.4
				c6.4,0.4,18.3-4.7,18.3-4.7s-2.5-9.1-2.4-18.3c0.1-9.3,2.8-18.5-1-20.5C610.5,200.4,599,193,599,193z"/>
			<g>
				<path class="st14" d="M575.1,211.1c-3.1,6.5-5.7,13-6.3,16.1c-1.3,6.8,1.3,22.5,2.6,26.8c1.3,4.3,6.8,0,6.8,0s1.7-20.8,2.1-22.5
					c0.3-1.1,3.5-9.4,5.9-15.5C581.2,216.4,577.4,213.4,575.1,211.1z"/>
			</g>
			<path class="st16" d="M618.2,204.2c-2-1-4.4-2.3-6.7-3.6c-1.9,0.7-3.4,1.4-3.4,1.4l-1.3,12.8c0,0,0.7,20.4,2.1,32.2
				c6-1.3,12.6-4.1,12.6-4.1s-2.6-9.9-2.5-18.9C619.2,214.7,622,206.1,618.2,204.2z"/>
			<circle class="st14" cx="650.4" cy="209" r="5.5"/>
			<path class="st8" d="M604.6,196.7l13.6,7.5c0,0,3.8,1.4,7.7,10.7c3.8,9.3,9.4,18.2,11.9,19.1c2.6,0.9,10.2-19.2,11.9-20.4
				c1.7-1.3,4.6-4.1,4.2,1.4c-0.4,5.5-3.8,30.2-9.4,32.3c-5.5,2.1-41.9-26.6-42.3-34.3C601.8,205.2,604.6,196.7,604.6,196.7z"/>
			<path class="st14" d="M649.5,212.5c-1.7,1.3-9.2,22.4-11.7,21.5c-0.1,0-0.3-0.1-0.5-0.2c0,0-0.1-0.1-0.1-0.1
				c-0.1-0.1-0.3-0.2-0.4-0.3c0,0-0.1-0.1-0.1-0.1c-0.2-0.2-0.4-0.3-0.5-0.5c-0.1-0.1-0.1-0.1-0.2-0.2c-0.1-0.1-0.3-0.3-0.4-0.5
				c-0.1-0.1-0.2-0.2-0.2-0.3c-0.1-0.2-0.3-0.3-0.4-0.5c-0.1-0.2-0.3-0.4-0.4-0.6c-0.1-0.2-0.2-0.3-0.4-0.5
				c-0.1-0.2-0.3-0.4-0.4-0.6c-0.1-0.1-0.2-0.2-0.3-0.4c-0.5-0.7-1-1.6-1.6-2.4c0,0,0-0.1-0.1-0.1c-0.8-1.3-1.6-2.7-2.4-4.2
				c0,0,0,0,0,0c-1.8,2.7-5.2,7.2-9.1,10.2c10.2,8.3,21.4,15.6,24.3,14.5c5.5-2.1,8.9-26.8,9.4-32.3
				C654.3,209.4,651.2,211.2,649.5,212.5z"/>
			<g>
				<g>
					<g>
						<g>
							<path class="st17" d="M641.3,214.2C641.3,214.2,641.3,214.2,641.3,214.2l-0.4-0.6l1-1c1.5-3.1,5.4-11.3,5.6-11.8
								c0.3-0.6,0.9-0.7,0.9-0.7s4.5-0.6,6-0.8l0.5-0.5l0.4,0.5c0.1,0.1,0,0.4,0,0.4s-5.9,12.4-6.2,13c-0.1,0.2-0.2,0.3-0.3,0.4l0,0
								l0,0c-0.3,0.2-0.6,0.3-0.6,0.3l-5.8,0.8c0,0,0,0-0.6,0.1C641.5,214.3,641.4,214.3,641.3,214.2L641.3,214.2L641.3,214.2z"/>
							<path class="st17" d="M649.5,210.5l-6.8,0.2c-0.4,0.7-0.7,1.4-0.9,1.9l-1,1l0.4,0.5c0,0,0,0.1,0.1,0.1l0,0h0
								c0.1,0,0.2,0.1,0.3,0.1c0.6-0.1,0.6-0.1,0.6-0.1l5.8-0.8c0,0,0.3,0,0.6-0.3l0,0l0,0c0.1-0.1,0.3-0.2,0.3-0.4
								c0.1-0.1,0.4-0.8,0.8-1.8L649.5,210.5z"/>
							<path class="st17" d="M655.2,199.8c0,0,0.1-0.3,0-0.4l-0.4-0.5l-0.5,0.5c0,0-0.1,0-0.1,0l0.3,0.5l0.4,0.5
								C655.1,200,655.2,199.8,655.2,199.8z"/>
							<path class="st18" d="M641.9,213.7l5.8-0.8c0,0,0.6-0.1,0.9-0.7c0.3-0.6,6.2-13,6.2-13s0.3-0.6-0.4-0.5
								c-0.6,0.1-6.5,0.9-6.5,0.9s-0.6,0.1-0.9,0.7c-0.3,0.6-6.2,13-6.2,13s-0.3,0.6,0.4,0.5C641.9,213.7,641.9,213.7,641.9,213.7z"
								/>
							<polygon class="st9" points="641.8,211.5 646.8,200.9 654.6,199.9 649.5,210.5 							"/>
							
								<ellipse transform="matrix(0.8087 -0.5882 0.5882 0.8087 -1.3326 419.9041)" class="st9" cx="644.9" cy="212" rx="0.8" ry="0.4"/>
							
								<ellipse transform="matrix(0.8086 -0.5884 0.5884 0.8086 6.7418 420.619)" class="st9" cx="649.8" cy="199.9" rx="0.2" ry="0.1"/>
							
								<ellipse transform="matrix(0.8092 -0.5875 0.5875 0.8092 6.586 420.1368)" class="st9" cx="650.2" cy="199.9" rx="0.1" ry="0"/>
							<g>
								<path class="st19" d="M651.8,199.7C651.9,199.7,651.9,199.7,651.8,199.7c0,0.1,0,0.1-0.1,0.1l-1.3,0.2c0,0-0.1,0,0-0.1
									c0,0,0.1-0.1,0.1-0.1L651.8,199.7z"/>
							</g>
						</g>
					</g>
				</g>
			</g>
			<path class="st14" d="M571.4,254c0,0,3,10.1,8.1,10.2c-0.5-2.6,0-8.1,0-8.1s-0.5,1.1-1.3-2.1c-0.7-3.2-2.7-6.4-2.7-6.4L571.4,254
				z"/>
			<g>
				<path class="st9" d="M581.1,280.3L581.1,280.3c-0.2,0-0.4-0.2-0.4-0.4l0.1-22.4c0-0.2,0.1-0.4,0.3-0.4c0.2,0,0.4,0.1,0.5,0.3
					l7,18.1c0.1,0.2,0,0.4-0.2,0.5c-0.2,0.1-0.4,0-0.5-0.2l-6.2-16.1l-0.1,20.3C581.5,280.1,581.3,280.3,581.1,280.3z"/>
			</g>
			<circle class="st14" cx="579.4" cy="260.1" r="4.1"/>
			<g>
				<path class="st9" d="M581.5,280.1c-0.2,0-0.4-0.2-0.4-0.4l-0.5-18.2c0-0.2,0.2-0.4,0.4-0.4c0,0,0,0,0,0c0.2,0,0.4,0.2,0.4,0.4
					l0.5,18.2C581.9,279.9,581.7,280.1,581.5,280.1C581.5,280.1,581.5,280.1,581.5,280.1z"/>
			</g>
			<path class="st14" d="M600.6,183.5l-1.9,13.7l0,0c1.3,3.1,4.4,5,7.8,4.9l1.6-0.1l3.1-14.4L600.6,183.5z"/>
			<path class="st20" d="M617.2,183.9c0.1-1.9-2.5-3.2-4-2.1c-1.1,0.8-1.3,2.4-0.9,3.7c0.4,1.3,1.3,2.4,2.1,3.4
				c-4,2.7-8.4,4.9-13,6.6c-1.9-2.8-3.8-5.5-5.7-8.3c-0.9-1.2-1.7-2.5-2.1-4c-0.9-3.3,0.4-9.2,2.7-11.8c3.1-3.7,7.4-5.4,12.2-5.7
				c3.7-0.3,8.3,2.3,10.7,5.2C622.3,174.7,618.7,179.8,617.2,183.9z"/>
			<path class="st20" d="M588.7,190.2c-0.1,0.4-0.2,0.8-0.1,1.2c0.1,0.4,0.3,0.8,0.6,1.1c1.3,1.6,2.8,3.1,4.4,4.4
				c1.3,1.1,2.8,2,4.4,2.7c5.2,2.2,11.2,1.4,16.9,0.6c-0.4-3.7-0.5-7.4-0.4-11.1c-2.4-0.9-4.1-3.3-4.2-5.8c-0.1-1.7,0.6-3.5,0.3-5.2
				c-1-4.9-7.9-6-12-5.3c-4,0.6-5.3,4.1-6.6,7.5C590.7,183.4,589.6,186.8,588.7,190.2z"/>
			<circle class="st8" cx="614.4" cy="187.1" r="1.4"/>
			<path class="st21" d="M591,237l-9.8,41.7c0,0,11.2,14.7,23.4,16.3c12.2,1.6,26.4-6,26.4-6l-9.7-47.1c0,0-19.1,2.8-26.1-2L591,237
				z"/>
			<path class="st9" d="M570.4,339c0.4,0.3,0.7,0.6,1,1c0.4,0.7,0.4,1.5,0.3,2.3c-0.4,6.6-1.7,13.2-3.8,19.4
				c-0.1,0.3-0.2,0.6-0.4,0.9c-0.6,0.9-2,1.1-3,0.6c-1-0.5-1.6-1.6-1.8-2.7c-0.2-1.1-0.1-2.2,0.1-3.4c0.2-1.5,0.4-3,0.5-4.5
				c0.2-2.7,0-5.4,0.4-8.1c0.3-1.9,0.8-3.9,2-5.5C567.1,337,568.6,337.7,570.4,339z"/>
			<path class="st9" d="M608.1,355.3c5,3.3,11.5,4,17.1,1.9c0.4-0.2,0.9-0.4,1.1-0.8c0.2-0.4-0.1-1.1-0.5-1c2-0.3,4.1-0.3,6.1-0.2
				c0.6,0,1.2,0.1,1.7,0.5c0.5,0.3,0.8,1,0.5,1.6c-0.2,0.3-0.5,0.5-0.8,0.7c-1.3,0.7-2.7,1.3-4.2,1.7c-2.3,0.7-4.7,1-7.1,1.3
				c-0.8,0.1-1.6,0.2-2.3,0.3c-3.5,0.5-7.1,0.9-10.6,0.2c-0.2,0-0.5-0.1-0.6-0.3c-0.2-0.2-0.2-0.4-0.3-0.6
				C608,358.9,608.1,357,608.1,355.3z"/>
		</g>
		<g>
			<g>
				<polygon class="st22" points="548.7,139.5 563.3,481.5 449,553.4 216.7,405.9 233.3,44.8 277.5,54 308.9,13.5 				"/>
				<polygon class="st8" points="548.7,139.5 513.9,182.8 458.4,171 449,553.4 563.3,481.5 				"/>
				<polygon class="st23" points="458.4,171 233.3,44.8 216.7,405.9 449,553.4 				"/>
				
					<ellipse transform="matrix(-0.9909 0.1344 -0.1344 -0.9909 743.0648 248.6081)" class="st6" cx="363.1" cy="149.4" rx="3.7" ry="6.6"/>
				
					<ellipse transform="matrix(-0.9909 0.1344 -0.1344 -0.9909 616.6425 179.1302)" class="st6" cx="302.3" cy="110.4" rx="3.7" ry="6.5"/>
				<polygon class="st24" points="563.3,481.5 504.4,459.4 449,553.4 				"/>
				<g>
					<path class="st22" d="M329.7,221.4c3.8,0.1,7.3-1,10.7-3.2c18.5-12,24-55.9,25.1-67.4c0.1-1.5-1-2.8-2.4-2.9l0,0
						c-1.4-0.1-2.7,0.9-2.8,2.4c-1.1,10.8-6.5,52.9-22.8,63.5c-3.9,2.6-8.2,3-13,1.3c-24.9-8.8-23-75.2-19.9-103.3
						c0.2-1.4-0.9-2.7-2.3-2.9l0,0c-1.5-0.2-2.8,0.9-2.9,2.3c-1.7,16.2-8.6,97.5,23.4,108.8C325.2,220.9,327.5,221.4,329.7,221.4z"
						/>
				</g>
			</g>
			<polygon class="st6" points="308.9,13.5 308.9,87.2 458.4,171 513.9,182.8 548.7,139.5 			"/>
			<g>
				<polygon class="st10" points="272.4,438.2 272.4,292.5 371.3,350.1 371.3,500.7 				"/>
				<polygon class="st25" points="274,438.2 274,292.5 310,313.5 310,460.9 				"/>
				<polygon class="st25" points="310,460.9 308.3,461.6 308.3,312.9 310.1,312.9 309.2,317.1 				"/>
				<polygon class="st26" points="272.4,438.2 272.4,292.5 308.3,313.5 308.3,460.9 				"/>
				<polygon class="st26" points="335.4,478 335.4,329.2 371.4,350.1 371.3,500.7 				"/>
				<path class="st22" d="M269.1,286.9V440l105.4,66.6V348.2L269.1,286.9z M371.3,500.7l-98.9-62.5V292.5l98.9,57.6V500.7z"/>
				<polygon class="st25" points="272.4,431.4 308.3,401.7 308.3,394.3 272.4,424 				"/>
				<polygon class="st25" points="272.4,387.9 308.3,358.2 308.3,355.7 272.4,385.5 				"/>
				<polygon class="st25" points="272.4,376 308.3,346.3 308.3,338.9 272.4,368.6 				"/>
				<polygon class="st25" points="272.4,328.1 297.6,307.2 292.4,304.2 272.4,320.7 				"/>
				<polygon class="st25" points="335.4,454.5 371.3,425.7 371.3,418.4 335.4,447.1 				"/>
				<polygon class="st25" points="335.4,425.4 371.3,395.5 371.3,393 335.4,423 				"/>
				<polygon class="st25" points="335.4,372 365.8,346.9 360.6,343.9 335.4,364.7 				"/>
			</g>
		</g>
		<g>
			<polygon class="st21" points="236,226.8 209.6,251.8 222.8,259.3 249.1,234.4 			"/>
			<polygon class="st27" points="249.1,234.4 222.8,259.3 236,266.9 262.3,241.9 			"/>
			<polygon class="st21" points="262.3,241.9 236,266.9 249.2,274.4 275.5,249.5 			"/>
			<polygon class="st27" points="275.5,249.5 249.1,274.4 262.3,282 288.6,257 			"/>
			<polygon class="st21" points="288.6,257 262.3,282 275.5,289.5 301.8,264.6 			"/>
			<polygon class="st27" points="301.8,264.5 275.5,289.5 288.7,297 315,272.1 			"/>
			<polygon class="st21" points="315,272.1 288.6,297.1 301.8,304.6 328.2,279.6 			"/>
			<polygon class="st27" points="328.2,279.6 301.8,304.6 315,312.1 341.3,287.2 			"/>
			<polygon class="st21" points="341.3,287.2 315,312.1 328.2,319.7 354.5,294.7 			"/>
			<polygon class="st27" points="354.5,294.7 328.2,319.7 341.4,327.2 367.7,302.3 			"/>
			<polygon class="st21" points="367.7,302.3 341.3,327.2 354.5,334.8 380.8,309.8 			"/>
			<polygon class="st27" points="380.8,309.8 354.5,334.8 367.7,342.3 394,317.4 			"/>
			<polygon class="st21" points="394,317.4 367.7,342.3 380.9,349.9 407.2,324.9 			"/>
			<polygon class="st27" points="407.2,324.9 380.8,349.9 394,357.4 420.3,332.5 			"/>
			<polygon class="st21" points="420.3,332.5 394,357.4 407.2,365 433.5,340 			"/>
			<polygon class="st27" points="433.5,340 407.2,365 420.4,372.5 446.7,347.6 			"/>
			<path class="st28" d="M209.6,251.8c0,0,0.3,6.9,5.1,9.8c5.6,3.3,8.1-2.2,8.1-2.2L209.6,251.8z"/>
			<path class="st29" d="M222.8,259.3c0,0,0.3,6.9,5.1,9.8c5.6,3.3,8.1-2.2,8.1-2.2L222.8,259.3z"/>
			<path class="st28" d="M235.9,266.8c0,0,0.3,6.9,5.1,9.8c5.6,3.3,8.1-2.2,8.1-2.2L235.9,266.8z"/>
			<path class="st29" d="M249.1,274.4c0,0,0.3,6.9,5.1,9.8c5.6,3.3,8.1-2.2,8.1-2.2L249.1,274.4z"/>
			<path class="st28" d="M262.3,281.9c0,0,0.3,6.9,5.1,9.8c5.6,3.3,8.1-2.2,8.1-2.2L262.3,281.9z"/>
			<path class="st29" d="M275.4,289.4c0,0,0.3,6.9,5.1,9.8c5.6,3.3,8.1-2.2,8.1-2.2L275.4,289.4z"/>
			<path class="st28" d="M288.6,296.9c0,0,0.3,6.9,5.1,9.8c5.6,3.3,8.1-2.2,8.1-2.2L288.6,296.9z"/>
			<path class="st29" d="M301.7,304.4c0,0,0.3,6.9,5.1,9.8c5.6,3.3,8.1-2.2,8.1-2.2L301.7,304.4z"/>
			<path class="st28" d="M314.9,312c0,0,0.3,6.9,5.1,9.8c5.6,3.3,8.1-2.2,8.1-2.2L314.9,312z"/>
			<path class="st29" d="M328.1,319.5c0,0,0.3,6.9,5.1,9.8c5.6,3.3,8.1-2.2,8.1-2.2L328.1,319.5z"/>
			<path class="st28" d="M341.2,327c0,0,0.3,6.9,5.1,9.8c5.6,3.3,8.1-2.2,8.1-2.2L341.2,327z"/>
			<path class="st29" d="M354.4,334.5c0,0,0.3,6.9,5.1,9.8c5.6,3.3,8.1-2.2,8.1-2.2L354.4,334.5z"/>
			<path class="st28" d="M367.6,342.1c0,0,0.3,6.9,5.1,9.8c5.6,3.3,8.1-2.2,8.1-2.2L367.6,342.1z"/>
			<path class="st29" d="M380.7,349.6c0,0,0.3,6.9,5.1,9.8c5.6,3.3,8.1-2.2,8.1-2.2L380.7,349.6z"/>
			<path class="st28" d="M393.9,357.1c0,0,0.3,6.9,5.1,9.8c5.6,3.3,8.1-2.2,8.1-2.2L393.9,357.1z"/>
			<path class="st29" d="M407,364.6c0,0,0.3,6.9,5.1,9.8c5.6,3.3,8.1-2.2,8.1-2.2L407,364.6z"/>
		</g>
		<g>
			<g>
				<path class="st9" d="M234.4,456.9c-0.1,0-0.1,0-0.2-0.1c-0.2-0.1-0.3-0.4-0.2-0.6l7.5-13.6c0.1-0.2,0.4-0.3,0.6-0.2
					c0.2,0.1,0.3,0.4,0.2,0.6l-7.5,13.6C234.7,456.9,234.6,456.9,234.4,456.9z"/>
			</g>
			<g>
				<polygon class="st6" points="246.4,445.3 226.7,456.7 223.9,489.3 235.5,496.6 259.1,481.6 257.4,446.6 252.9,447.5 
					249.8,443.4 				"/>
				<polygon class="st7" points="226.7,456.7 230.1,463.3 235.9,459.9 235.5,496.6 223.9,489.3 				"/>
				<polygon class="st8" points="235.9,459.9 257.4,446.6 259.1,481.6 235.5,496.6 				"/>
				
					<ellipse transform="matrix(0.9885 0.151 -0.151 0.9885 72.5083 -31.5411)" class="st9" cx="243.9" cy="461.5" rx="0.9" ry="1.6"/>
				
					<ellipse transform="matrix(0.9885 0.1511 -0.1511 0.9885 71.9779 -32.6746)" class="st9" cx="250.9" cy="457.1" rx="0.9" ry="1.6"/>
				<polygon class="st8" points="223.9,489.3 229.9,487 235.5,496.6 				"/>
			</g>
			<path class="st30" d="M234.2,435.6c0,0,3,10.1,8.1,10.2c-0.6-2.6,0-8.1,0-8.1s-0.5,1.1-1.3-2.1c-0.7-3.2-2.7-6.4-2.7-6.4
				L234.2,435.6z"/>
			<g>
				<path class="st9" d="M243.9,461.9L243.9,461.9c-0.2,0-0.4-0.2-0.4-0.4l0.1-22.4c0-0.2,0.1-0.4,0.3-0.4c0.2,0,0.4,0.1,0.5,0.3
					l7,18.1c0.1,0.2,0,0.4-0.2,0.5c-0.2,0.1-0.4,0-0.5-0.2l-6.2-16.1l-0.1,20.3C244.3,461.7,244.1,461.9,243.9,461.9z"/>
			</g>
			<circle class="st30" cx="242.2" cy="441.8" r="4.1"/>
			<line class="st31" x1="291.2" y1="426.8" x2="295.7" y2="410"/>
			<g>
				<path class="st9" d="M244.3,461.7c-0.2,0-0.4-0.2-0.4-0.4l-0.5-18.2c0-0.2,0.2-0.4,0.4-0.4c0,0,0,0,0,0c0.2,0,0.4,0.2,0.4,0.4
					l0.5,18.2C244.7,461.5,244.5,461.7,244.3,461.7C244.3,461.7,244.3,461.7,244.3,461.7z"/>
			</g>
			<circle class="st30" cx="309.1" cy="383.4" r="4.2"/>
			<path class="st32" d="M253.3,423.4c0,0-4.7,36.4-5.1,54.1c-0.4,17.6-7.3,18.1-12.3,29.4c-4.9,11.4-8.1,23-8.1,23l2.6,1.5
				c0,0,23.4-28.7,26.2-31.5c2.8-2.8,12-50.8,12-50.8L253.3,423.4z"/>
			<path class="st33" d="M230.4,531.3c0,0-1.1,3.3-2,5.8c-0.9,2.5,0,8.2-1.5,10.5c-1.5,2.4-5.4,0.4-5.3-1.6c0.2-2,1.3-9.6,1.8-10.9
				c0.5-1.3,4.3-5.3,4.3-5.3L230.4,531.3z"/>
			<polygon class="st34" points="301.4,416.2 283.8,428.1 283.3,458.8 294.6,464.9 315.7,449.3 311.9,416.7 307.7,417.8 
				304.5,414.2 			"/>
			<circle class="st30" cx="271.6" cy="361.9" r="12.8"/>
			<path class="st33" d="M277,533.8c0,0,0.2,5.2,0.3,5.7c0.1,0.5,2.3,1.6,5.5,0.9c3.2-0.7,12.4-3.7,14-5.3s-3.4-1.2-6.5-0.9
				c-3.1,0.3-9.1-0.4-9.1-0.4H277z"/>
			<path class="st35" d="M251.7,436.5l14,11.6c0,0,8.2,28.3,9.1,35c0.8,6.8,2.1,43.1,2.1,50.7c0,4.7,3.4,2.4,4.6,1.6
				c1.3-0.8,6.8-46.8,6.8-58.8s-5.3-54-5.3-54l-29.7,0.1L251.7,436.5z"/>
			<path class="st30" d="M307,385.3c0,0-11.5,23.9-12.6,28.1c-0.8,3.3,5.2,7.9,7.6,5.3c2.4-2.5,8.7-32.4,8.7-32.4L307,385.3z"/>
			<path class="st12" d="M281.3,408.1c0.5-10.4,2-20.4-0.3-22.3c-6.6-5.4-17.8-9.4-17.8-9.4s-10.2-4.8-14,0
				c-3.8,4.8-16.3,25.6-17.5,32.4c-0.7,3.5-0.3,9.5,0.4,15c1.7,1,6.4,3.4,9.1,2.2c0.1-6.3,0.3-13.6,0.5-14.6
				c0.4-1.7,10-20.4,10-20.4s2.6,10.2,4.3,14c1.7,3.8-2.1,14.9-3,17.9c-0.9,3,6.8,6,13.2,6.4c6.4,0.4,18.3-4.7,18.3-4.7
				S280.9,415,281.3,408.1z"/>
			<path class="st30" d="M241,435.6c0,0,0-4.5,0.1-9.7c-2.6,1.3-7.4-1.2-9.1-2.2c0.6,5.1,1.5,9.8,2.2,11.8
				C235.4,439.9,241,435.6,241,435.6z"/>
			<path class="st36" d="M280.9,386c-1.9-1.3-1.5,2.5-3.8,1.2c-1.9,0.7-2.8,0.5-2.8,0.5l-1.3,8.9c0,0-2.6,20.2-1.2,32
				c6-1.3,12.6-4.1,12.6-4.1s-0.5-4.2-2-9.3C279.3,404.9,283.7,387.9,280.9,386z"/>
			<path class="st30" d="M263.4,365.1l-1.9,13.7l0,0c1.3,3.1,4.4,5,7.8,4.9l1.6-0.1l3.1-14.4L263.4,365.1z"/>
			<path class="st37" d="M280,365.6c0.1-1.9-2.5-3.2-4-2.1c-1.1,0.8-1.3,2.4-0.9,3.7c0.4,1.3,1.3,2.4,2.1,3.4c-4,2.7-8.4,4.9-13,6.6
				c-1.9-2.8-3.8-5.5-5.7-8.3c-0.9-1.2-1.7-2.5-2.1-4c-0.9-3.3,0.4-9.2,2.7-11.8c3.1-3.7,7.4-5.4,12.2-5.7c3.7-0.3,8.3,2.3,10.7,5.2
				C285,356.3,281.5,361.4,280,365.6z"/>
			<g>
				<path class="st12" d="M302,412.6c-0.8-1.7-1.7-3.3-2.9-4.8c-2.7-3.4-6.2-6.3-10.4-14c-4.8-8.8-10.6-9.4-10.6-9.4
					c-9.8,1.1-7.9,7.2-6.3,11.9c0.9,2.5,2.6,4.5,4.9,5.7c1.4,0.7,2.7,1.6,3.9,2.9c6.8,7.3,15.4,16.1,18,13.6l0.7-0.2
					C301.8,417.6,303,414.9,302,412.6L302,412.6z"/>
			</g>
			<polygon class="st21" points="292.6,430.5 311.9,416.7 315.7,449.3 294.6,464.9 			"/>
			<line class="st31" x1="299.5" y1="408.7" x2="297.9" y2="434.1"/>
			<line class="st31" x1="299.5" y1="408.4" x2="308.2" y2="428"/>
			<polygon class="st38" points="283.8,428.1 287.3,434 292.6,430.5 294.6,464.9 283.3,458.8 			"/>
			<circle class="st12" cx="262.2" cy="351.8" r="9.6"/>
			<polygon class="st21" points="283.3,458.8 288.7,456.3 294.6,464.9 			"/>
			<circle class="st37" cx="260.6" cy="350.2" r="10.3"/>
		</g>
		<g>
			<g>
				<polygon class="st6" points="547,443.5 492.1,475.4 484.3,566.3 516.7,586.7 582.6,544.9 577.9,447.1 565.3,449.7 556.4,438.2 
									"/>
				<polygon class="st7" points="492.1,475.4 501.5,493.7 517.8,484.3 516.7,586.7 484.3,566.3 				"/>
				<polygon class="st8" points="517.8,484.3 577.9,447.1 582.6,544.9 516.7,586.7 				"/>
				
					<ellipse transform="matrix(0.9885 0.1511 -0.1511 0.9885 80.0422 -75.9745)" class="st9" cx="540" cy="488.7" rx="2.5" ry="4.5"/>
				
					<ellipse transform="matrix(0.9885 0.151 -0.151 0.9885 78.4072 -79.0746)" class="st9" cx="559.7" cy="476.6" rx="2.5" ry="4.5"/>
				<polygon class="st8" points="484.3,566.3 501,560.1 516.7,586.7 				"/>
				<polyline class="st10" points="556.4,438.2 556.4,460.4 517.8,484.3 501.5,493.7 492.1,475.4 552.4,440.5 				"/>
			</g>
			<g>
				<path class="st9" d="M550.3,512.5c-1.2,0-2.3-0.4-3.4-1.1c-6.6-4.5-7.7-21.9-7.8-22.6l1.7-0.1c0,0.2,1.1,17.3,7,21.3
					c1.2,0.8,2.6,1,4.1,0.5c8.3-2.8,7.8-25.4,6.9-33.8l1.7-0.2c0.1,1.3,3.2,31.9-8,35.6C551.8,512.4,551,512.5,550.3,512.5z"/>
			</g>
		</g>
		<g>
			<g>
				<polygon class="st6" points="596.2,469.4 541.3,501.3 533.4,592.2 565.8,612.6 631.7,570.8 627,473 614.5,475.6 605.6,464.2 
									"/>
				<polygon class="st7" points="541.3,501.3 550.7,519.6 566.9,510.2 565.8,612.6 533.4,592.2 				"/>
				<polygon class="st8" points="566.9,510.2 627,473 631.7,570.8 565.8,612.6 				"/>
				
					<ellipse transform="matrix(0.9885 0.1511 -0.1511 0.9885 84.5412 -83.1187)" class="st9" cx="589.1" cy="514.7" rx="2.5" ry="4.5"/>
				
					<ellipse transform="matrix(0.9885 0.1511 -0.1511 0.9885 82.9049 -86.2181)" class="st9" cx="608.8" cy="502.5" rx="2.5" ry="4.5"/>
				<polygon class="st8" points="533.4,592.2 550.1,586 565.8,612.6 				"/>
				<polyline class="st10" points="605.6,464.2 605.6,486.3 566.9,510.2 550.7,519.6 541.3,501.3 601.5,466.4 				"/>
			</g>
			<g>
				<path class="st9" d="M599.5,538.4c-1.2,0-2.3-0.4-3.4-1.1c-6.6-4.5-7.7-21.9-7.8-22.6l1.7-0.1c0,0.2,1.1,17.3,7,21.3
					c1.2,0.8,2.6,1,4.1,0.5c8.3-2.8,7.8-25.4,6.9-33.8l1.7-0.2c0.1,1.3,3.2,31.9-8,35.6C600.9,538.3,600.2,538.4,599.5,538.4z"/>
			</g>
		</g>
		<g>
			<g>
				<path class="st9" d="M135.7,509.2c-0.1,0-0.1,0-0.2-0.1c-0.2-0.1-0.3-0.4-0.2-0.6l8.3-15c0.1-0.2,0.4-0.3,0.6-0.2
					c0.2,0.1,0.3,0.4,0.2,0.6l-8.3,15C136,509.2,135.9,509.2,135.7,509.2z"/>
			</g>
			<g>
				<g>
					<path class="st9" d="M73.2,487.5c-0.1,0-0.1,0-0.2-0.1c-0.2-0.1-0.3-0.4-0.2-0.6l8.3-15c0.1-0.2,0.4-0.3,0.6-0.2
						c0.2,0.1,0.3,0.4,0.2,0.6l-8.3,15C73.5,487.4,73.3,487.5,73.2,487.5z"/>
				</g>
				<g>
					<polygon class="st39" points="86.4,474.7 64.7,487.3 61.5,523.3 74.4,531.4 100.5,514.8 98.6,476.1 93.6,477.1 90.1,472.6 
											"/>
					<polygon class="st40" points="64.7,487.3 68.4,494.5 74.8,490.8 74.4,531.4 61.5,523.3 					"/>
					<polygon class="st13" points="74.8,490.8 98.6,476.1 100.5,514.8 74.4,531.4 					"/>
					
						<ellipse transform="matrix(0.9885 0.1512 -0.1512 0.9885 75.4347 -6.9765)" class="st9" cx="83.6" cy="492.6" rx="1" ry="1.8"/>
					
						<ellipse transform="matrix(0.9885 0.1511 -0.1511 0.9885 74.7528 -8.2109)" class="st9" cx="91.4" cy="487.8" rx="1" ry="1.8"/>
					<polygon class="st13" points="61.5,523.3 68.2,520.8 74.4,531.4 					"/>
				</g>
				<g>
					<path class="st9" d="M83.6,493L83.6,493c-0.3,0-0.5-0.2-0.5-0.5l0.1-24.8c0-0.2,0.2-0.4,0.4-0.4c0.2,0,0.4,0.1,0.5,0.3l7.7,20
						c0.1,0.2,0,0.5-0.3,0.6c-0.2,0.1-0.5,0-0.6-0.3l-6.9-17.8L84,492.6C84,492.8,83.8,493,83.6,493z"/>
				</g>
				<g>
					<path class="st9" d="M84,492.8c-0.2,0-0.4-0.2-0.5-0.4l-0.5-20.1c0-0.2,0.2-0.5,0.4-0.5c0,0,0,0,0,0c0.2,0,0.4,0.2,0.5,0.4
						l0.5,20.1C84.5,492.6,84.3,492.8,84,492.8C84.1,492.8,84,492.8,84,492.8z"/>
				</g>
			</g>
			<path class="st35" d="M95.9,453c0,0-8.1,33.5-11.4,51.5c-3.4,18,1.9,64.5,1.9,64.5s1.7,2.8,5.6,2.8c3.9,0,8.2-55.6,8.2-55.6
				s5.2-40.8,8.1-40.3c0.6,0.1,5.7,2,8,1.6c8-1.5,19.3-8.5,18.9-16.8c-0.6-10.7-9-11.2-9-11.2s-14.6-1.1-16.3-0.6
				C108.2,449.6,95.9,453,95.9,453z"/>
			<path class="st35" d="M114.6,465.1c0,0-2.7,36.7,1.2,44c3.9,7.3,25.8,29.5,25.8,29.5s6.4,0.8,4.8-3.6
				c-1.7-4.5-16.9-31.5-16.9-31.5l5.6-42.6l-12.3-15.2L114.6,465.1z"/>
			<path class="st7" d="M86.8,399.2c0,0,3.4-6.2,8.4-6.2c5.1,0,38.1,7.3,40.3,9.6c2.2,2.2,18.1,32.4,18.1,42.5
				c0,10.1-3.4,44.9-3.4,44.9s-6.2,1.1-7.9-1.7c-1.7-2.8-3.4-37.6-3.4-37.6s-9-32.5-9-30.9C130.1,421.6,86.8,399.2,86.8,399.2z"/>
			<path class="st7" d="M96.4,399.1l32.9,9.1l4.7,8.3c0,0,2.8,39.3,1.1,44.3c-1.7,5.1-20.2,7.3-26.9,6.2c-6.7-1.1-12.3-14-12.3-14
				l-3.5-56L96.4,399.1z"/>
			<path class="st7" d="M86.8,399.2c0,0-9.3,16.9-9.9,28.7c-0.6,11.8,2.1,37.4,2.1,37.4s3.4,2.2,6.7,0.6c3.4-1.7,2.2-33.1,3.9-37
				c1.7-3.9,12.3-28.6,12.3-28.6S98,392.5,86.8,399.2z"/>
			<circle class="st20" cx="105" cy="382.4" r="13.2"/>
			<path class="st20" d="M100.7,386.5l4.5,13.5l0,0c2.6,2.2,6.4,2.6,9.4,1l1.4-0.8l-3.7-14.7L100.7,386.5z"/>
			<path class="st37" d="M141.2,537.9c0,0,1.7,6.9,1.2,8.2c-0.6,1.3-2.5,7.7,0.9,8.3c3.4,0.6,5.5-2.5,5.9-5.9
				c0.4-3.3-2.6-13.6-2.6-13.6L141.2,537.9z"/>
			<path class="st20" d="M90.8,557.9c-1.7-0.3-3.7-0.8-5.6-1.2c0.6,7.3,1.2,12.3,1.2,12.3c0.4,4.6,1.9,4.2,5.7,3
				c1.2-0.4,2.5-6,3.7-13.9C93.9,558.1,92.1,558.1,90.8,557.9z"/>
			<path class="st8" d="M84.1,558c0,0,3.8,3.8,11.7,2.9c0.9-0.2,1.9-2.2,1.9-4c0-0.8-0.1-1.7-0.3-2.5c-0.2-1-1.4-1.5-2.3-1
				c-1.6,1-4.1,2.1-6.4,1.8c-3.8-0.5-4.1-4.6-4.1-4.6l-0.8,0c-1.1,1.6-1,3.5-0.5,5.4c0.1,0.4,0.2,0.7,0.3,1.1L84.1,558z"/>
			<path class="st20" d="M146.4,534.9c-0.4-1.1-1.6-3.6-3.3-6.7c-1.4,2-2.9,3.9-3.3,4.2c-0.9,0.7-1.8,1.1-2.7,1.4
				c2.7,2.8,4.5,4.7,4.5,4.7S148.1,539.4,146.4,534.9z"/>
			<path class="st8" d="M133.5,531.6l2.4,3.6c0,0,7,3.2,8.7-5.5l-2.2-4.5l-0.8,0.2c0,0,0.4,4.4-2.8,5.1c-3.2,0.7-4.7,0.3-4.7,0.3
				L133.5,531.6z"/>
			<path class="st37" d="M92.8,578c0.2-2.4,0.4-4.8,0.6-7.2c0-0.4,0.1-0.8-0.1-1.1c-0.5,0.5-1.2,0.6-1.8,0.6c-1.7,0.1-3.5,0-5.1-0.4
				c-0.1,2.6-2,4.7-3.8,6.6c-1.8,1.9-3.8,3.7-4.9,6.1c-0.2,0.4-0.4,0.9-0.2,1.4c0.3,0.5,0.9,0.6,1.5,0.7c2.6,0,5.1-0.8,7.4-2
				C88.7,581.3,90.8,579.6,92.8,578z"/>
			<ellipse class="st20" cx="117" cy="382.9" rx="2.7" ry="5.1"/>
			<path class="st37" d="M105,369.2c-5.6,0-10.3,3.5-12.2,8.3c2.3,1.4,6,1.8,8.4,1.9c1,0,10.4-1.3,10-2.9c0.5,2,1.3,4,2.3,5.8
				c0-2,1.6-3.9,3.5-4.3c0.1,0,0.2,0,0.3-0.1C115.6,372.9,110.7,369.2,105,369.2z"/>
			<circle class="st20" cx="145.5" cy="490.3" r="4.8"/>
			<circle class="st20" cx="82.9" cy="468.7" r="4.8"/>
			<g>
				<g>
					<polygon class="st41" points="150.7,498.2 129,510.8 125.9,546.8 138.7,554.9 164.8,538.3 162.9,499.6 158,500.6 154.5,496.1 
											"/>
					<polygon class="st7" points="129,510.8 132.7,518 139.1,514.3 138.7,554.9 125.9,546.8 					"/>
					<polygon class="st8" points="139.1,514.3 162.9,499.6 164.8,538.3 138.7,554.9 					"/>
					<ellipse transform="matrix(0.9885 0.1511 -0.1511 0.9885 79.697 -16.4322)" class="st9" cx="148" cy="516.1" rx="1" ry="1.8"/>
					
						<ellipse transform="matrix(0.9885 0.1512 -0.1512 0.9885 79.0905 -17.6722)" class="st9" cx="155.8" cy="511.3" rx="1" ry="1.8"/>
					<polygon class="st8" points="125.9,546.8 132.5,544.3 138.7,554.9 					"/>
				</g>
				<g>
					<path class="st9" d="M148,516.5L148,516.5c-0.3,0-0.5-0.2-0.5-0.5l0.1-24.8c0-0.2,0.2-0.4,0.4-0.4c0.2,0,0.4,0.1,0.5,0.3
						l7.7,20c0.1,0.2,0,0.5-0.3,0.6c-0.2,0.1-0.5,0-0.6-0.3l-6.9-17.8l-0.1,22.4C148.4,516.3,148.2,516.5,148,516.5z"/>
				</g>
				<g>
					<path class="st9" d="M148.4,516.3c-0.2,0-0.4-0.2-0.5-0.4l-0.5-20.1c0-0.2,0.2-0.5,0.4-0.5c0,0,0,0,0,0c0.2,0,0.4,0.2,0.5,0.4
						l0.5,20.1C148.9,516.1,148.7,516.3,148.4,516.3C148.4,516.3,148.4,516.3,148.4,516.3z"/>
				</g>
			</g>
		</g>
		<g>
			<polygon class="st22" points="279.8,214.3 281.7,212.4 374,265.7 373.9,293.3 372,295.2 			"/>
			<path class="st22" d="M281.7,212.4l-0.1,27.6l92.3,53.3l0.1-27.6L281.7,212.4z M316.1,247.4l5.6,3.2l0,3.9c0,0.3-0.1,0.4-0.1,0.5
				c-0.1,0.1-0.2,0-0.4-0.1c0.2,0.1,0.3,0.1,0.4,0.1c0.1-0.1,0.1-0.2,0.1-0.5l0-3.9L316.1,247.4L316.1,247.4z M312.6,236.8l0,1.9
				l0,0L312.6,236.8z M312.4,250l0.6,0.3c0.3,0.1,0.5,0.1,0.5,0c-0.1,0.2-0.3,0.2-0.5,0L312.4,250l0,1.8l0,0L312.4,250z
				 M301.5,243.5c0.2,0.2,0.5,0.3,0.8,0.5c0.3,0.2,0.5,0.3,0.8,0.4c-0.2-0.1-0.5-0.2-0.8-0.4C302,243.8,301.8,243.7,301.5,243.5z
				 M304.3,244.4c-0.2,0.2-0.6,0.2-1,0.1C303.7,244.5,304,244.5,304.3,244.4z M304.2,238.5c-0.2-0.2-0.4-0.4-0.7-0.7
				c-0.4-0.3-0.7-0.7-1-1c-0.6-0.6-1.1-1.2-1.4-1.9c-0.1-0.3-0.2-0.6-0.2-1l0,0c0,0.4,0.1,0.7,0.2,1c0.3,0.6,0.8,1.2,1.4,1.9
				c0.3,0.3,0.7,0.6,1,1C303.8,238.1,304,238.3,304.2,238.5c0.4,0.4,0.9,0.9,1.3,1.4C305.1,239.4,304.7,239,304.2,238.5z
				 M305.8,233.2c-0.9-0.9-1.8-1.6-2.8-2.1C304,231.6,304.9,232.3,305.8,233.2z M301.1,230.3c-0.6-0.1-1-0.1-1.4,0
				C300.1,230.2,300.6,230.2,301.1,230.3z M315.4,253.6l1.7,1v0L315.4,253.6z M325.2,257.3l-1.1-0.7L325.2,257.3L325.2,257.3z
				 M325.3,244.2l-4.8-2.8L325.3,244.2L325.3,244.2z"/>
			<g>
				<g>
					<path class="st6" d="M350.4,263.9c1.9,1.1,3.1,2.2,3.1,4.5c0,2-1.2,2-2.9,1l-1.4-0.8l0-5.4L350.4,263.9z"/>
				</g>
				<g>
					<path class="st7" d="M334.7,252.3c2.9,1.7,5.6,5.3,5.6,11.1c0,5.2-2.4,6.5-5.8,4.5c-3.5-2-5.7-5.9-5.7-11.1
						C328.7,250.9,331.9,250.7,334.7,252.3z M334.5,265.6c2.5,1.4,3.2-0.9,3.2-3.6c0-2.3-0.5-5.9-3.2-7.5c-2.5-1.5-3.4,0.8-3.4,3.5
						C331.2,260.6,331.7,264,334.5,265.6"/>
				</g>
				<g>
					<path class="st6" d="M334.5,254.6c2.7,1.6,3.2,5.1,3.2,7.5c0,2.7-0.7,5-3.2,3.6c-2.8-1.6-3.4-5-3.4-7.6
						C331.2,255.3,332,253.1,334.5,254.6z"/>
				</g>
				<g>
					<path class="st7" d="M301.1,232.9c1.3,0.8,2.5,1.8,3.7,3.1l0,3.4l-2-1l0-1.3c0-0.4-0.1-0.6-0.4-1c-0.4-0.4-0.9-0.7-1.3-0.9
						c-1.2-0.7-2.1-0.7-2.1,0.8c0,1.4,1.1,2.5,2.6,3.8c1.8,1.7,3.7,3.7,3.7,6.6c0,3-2.1,3.4-4.8,1.9c-1.6-0.9-2.8-1.9-4-3.2l0-3.6
						l2,1l0,1.4c0,0.4,0.1,0.6,0.4,1c0.4,0.4,0.9,0.7,1.4,1c1.3,0.8,2.4,0.9,2.4-0.8c0-1.4-1.1-2.5-2.5-3.7c-2-1.7-3.8-3.7-3.8-6.6
						C296.5,232,298.4,231.4,301.1,232.9z"/>
				</g>
				<g>
					<path class="st7" d="M323.4,246.1l0,1.8l-0.6-0.3c-0.3-0.1-0.6-0.1-0.6,0.4l0,10.5l1.1,0.7l0,1.9l-4.8-2.8l0-1.8l0.7,0.3
						c0.4,0.2,0.6,0.1,0.6-0.4l0-3.9l-5.6-3.2l0,4.6l1.1,0.7l0,1.9l-4.8-2.8l0-1.8l0.6,0.3c0.3,0.1,0.6,0.2,0.6-0.3l0-10.5l-1.1-0.7
						l0-1.9l4.8,2.8l0,1.8l-0.6-0.3c-0.4-0.2-0.6-0.2-0.6,0.4l0,3.5l5.6,3.2l0-4.2l-1.1-0.7l0-1.9L323.4,246.1z"/>
				</g>
				<g class="st42">
					<g>
						<path class="st7" d="M350.9,271.8l-1.7-1l0,3.3l1.9,1.2l0,1.9l-5.5-3.2l0-1.8l0.7,0.3c0.3,0.1,0.6,0.1,0.6-0.3l0-10.5
							l-1.1-0.7l0-1.9l5.6,3.3c2.9,1.7,4.7,4.3,4.7,7.3C356,273,353.9,273.5,350.9,271.8z M349.2,263.2l0,5.4l1.4,0.8
							c1.7,1,2.9,1,2.9-1c0-2.3-1.2-3.4-3.1-4.5L349.2,263.2"/>
					</g>
					<g>
						<path class="st6" d="M279.8,214.3l92.3,53.3l-0.1,27.6l-92.3-53.3L279.8,214.3z M323.4,247.9l0-1.8l-4.8-2.8l0,1.9l1.1,0.7
							l0,4.2l-5.6-3.2l0-3.5c0-0.6,0.2-0.6,0.6-0.4l0.6,0.3l0-1.8l-4.8-2.8l0,1.9l1.1,0.7l0,10.5c0,0.5-0.2,0.4-0.6,0.3l-0.6-0.3
							l0,1.8l4.8,2.8l0-1.9l-1.1-0.7l0-4.6l5.6,3.2l0,3.9c0,0.6-0.2,0.6-0.6,0.4l-0.7-0.3l0,1.8l4.8,2.8l0-1.9l-1.1-0.7l0-10.5
							c0-0.5,0.2-0.5,0.6-0.4L323.4,247.9 M334.4,267.8c3.5,2,5.8,0.7,5.8-4.5c0-5.8-2.6-9.4-5.6-11.1c-2.8-1.6-5.9-1.4-6,4.4
							C328.7,261.9,330.9,265.8,334.4,267.8 M350.9,271.8c3,1.7,5.1,1.2,5.1-2.2c0-3-1.8-5.7-4.7-7.3l-5.6-3.3l0,1.9l1.1,0.7l0,10.5
							c0,0.5-0.2,0.4-0.6,0.3l-0.7-0.3l0,1.8l5.5,3.2l0-1.9l-1.9-1.2l0-3.3L350.9,271.8 M300.5,248.3c2.7,1.6,4.8,1.1,4.8-1.9
							c0-2.9-1.9-5-3.7-6.6c-1.5-1.4-2.6-2.4-2.6-3.8c0-1.4,0.9-1.4,2.1-0.8c0.4,0.2,0.9,0.6,1.3,0.9c0.4,0.3,0.4,0.6,0.4,1l0,1.3
							l2,1l0-3.4c-1.2-1.3-2.4-2.3-3.7-3.1c-2.7-1.6-4.6-1-4.6,1.8c0,2.9,1.8,4.9,3.8,6.6c1.4,1.2,2.5,2.3,2.5,3.7
							c0,1.7-1.1,1.6-2.4,0.8c-0.5-0.3-1-0.7-1.4-1c-0.4-0.3-0.4-0.6-0.4-1l0-1.4l-2-1l0,3.6C297.7,246.4,299,247.4,300.5,248.3"/>
					</g>
				</g>
			</g>
		</g>
	</g>
</g>
<g id="DESIGNED_BY_FREEPIK">
</g>
</svg>
