<?xml version="1.0" encoding="utf-8"?>
<!-- Generator: Adobe Illustrator 19.0.0, SVG Export Plug-In . SVG Version: 6.00 Build 0)  -->
<svg version="1.1" id="Layer_1" xmlns="http://www.w3.org/2000/svg" xmlns:xlink="http://www.w3.org/1999/xlink" x="0px" y="0px"
	 viewBox="0 0 67 76" style="enable-background:new 0 0 67 76;" xml:space="preserve">
<style type="text/css">
	.st0{fill:#5C79E4;}
	.st1{fill:#FA496F;}
	.st2{fill:#52639E;}
</style>
<g>
	<polygon class="st0" points="5.9,11.3 5.9,46 22.5,39.1 22.5,22.6 27.7,20.3 27.7,37 27.7,37 29.4,36.4 29.4,1.7 	"/>
	<path class="st1" d="M5.9,48v11.9h23.5V38.3L5.9,48z M25,55.5l-5.2,0.2v-7.6l5.2-1.3V55.5z"/>
	<path class="st0" d="M31.4,30.2v31.6h11.6l7-26.7L31.4,30.2z M38.9,60.1h-5.2V45.5l5.2,2.2V60.1z"/>
	<polygon class="st1" points="31.4,9.4 31.4,28.2 38.8,30.1 38.9,18.9 43.1,20.6 43.1,31.1 44.2,31.4 44.2,14.6 	"/>
	<path class="st2" d="M48,33.4L41.7,60h-36v3.5h4.2c1-0.8,2.3-1.3,3.6-1.3c1.4,0,2.6,0.5,3.6,1.3h15.7c1-0.8,2.3-1.3,3.6-1.3
		c1.4,0,2.6,0.5,3.6,1.3h4.1l6.3-26.6h10.7v-3.5H48z"/>
	<path class="st2" d="M18.8,68.8c0,3-2.4,5.5-5.3,5.5c-2.9,0-5.3-2.5-5.3-5.5s2.4-5.5,5.3-5.5C16.5,63.3,18.8,65.8,18.8,68.8"/>
	<path class="st2" d="M41.9,68.8c0,3-2.4,5.5-5.3,5.5c-2.9,0-5.3-2.5-5.3-5.5s2.4-5.5,5.3-5.5C39.6,63.3,41.9,65.8,41.9,68.8"/>
</g>
</svg>
