<?xml version="1.0" encoding="utf-8"?>
<!-- Generator: Adobe Illustrator 19.0.0, SVG Export Plug-In . SVG Version: 6.00 Build 0)  -->
<svg version="1.1" id="Layer_1" xmlns="http://www.w3.org/2000/svg" xmlns:xlink="http://www.w3.org/1999/xlink" x="0px" y="0px"
	 viewBox="0 0 89 45" style="enable-background:new 0 0 89 45;" xml:space="preserve">
<style type="text/css">
	.st0{fill:#2B3C4D;}
</style>
<g>
	<g>
		<g>
			<path class="st0" d="M1.2,21.3C1,21.2,1,21,1,20.8v-17C1,3.7,1,3.5,1.2,3.4c0.1-0.1,0.3-0.2,0.4-0.2h6.9c2.1,0,3.8,0.5,5,1.5
				c1.2,1,1.8,2.5,1.8,4.5c0,2-0.6,3.5-1.8,4.5c-1.2,1-2.9,1.5-5,1.5H5.7v5.6c0,0.2-0.1,0.3-0.2,0.5c-0.1,0.1-0.3,0.2-0.4,0.2H1.6
				C1.4,21.5,1.3,21.4,1.2,21.3z M8.4,11.5c0.7,0,1.2-0.2,1.6-0.6c0.4-0.4,0.6-0.9,0.6-1.7c0-0.7-0.2-1.2-0.5-1.6
				C9.7,7.2,9.1,7,8.4,7H5.7v4.5H8.4z"/>
			<path class="st0" d="M17.5,21.3c-0.1-0.1-0.2-0.3-0.2-0.5V8.6c0-0.2,0.1-0.4,0.2-0.5C17.6,8,17.8,7.9,18,7.9h3
				c0.2,0,0.3,0.1,0.5,0.2c0.1,0.1,0.2,0.3,0.2,0.5v1c0.5-0.5,1-1,1.6-1.2c0.6-0.3,1.3-0.4,2-0.4h1.1c0.2,0,0.3,0.1,0.4,0.2
				C26.9,8.2,27,8.4,27,8.6v2.9c0,0.2-0.1,0.3-0.2,0.5c-0.1,0.1-0.3,0.2-0.4,0.2h-2.5c-0.7,0-1.2,0.2-1.5,0.6
				c-0.4,0.4-0.5,0.9-0.5,1.6v6.6c0,0.2-0.1,0.3-0.2,0.5c-0.1,0.1-0.3,0.2-0.5,0.2H18C17.8,21.5,17.7,21.4,17.5,21.3z"/>
			<path class="st0" d="M29.8,20.1c-1.1-1.1-1.7-2.8-1.8-5v-0.8c0.1-2.1,0.7-3.7,1.8-4.9c1.1-1.2,2.7-1.8,4.6-1.8
				c1.4,0,2.6,0.3,3.6,0.9c1,0.6,1.7,1.4,2.2,2.5c0.5,1.1,0.7,2.3,0.7,3.6v0.7c0,0.2-0.1,0.4-0.2,0.5c-0.1,0.1-0.3,0.2-0.5,0.2h-7.8
				v0.2c0,0.8,0.2,1.4,0.5,1.9c0.3,0.5,0.8,0.7,1.4,0.7c0.4,0,0.7-0.1,0.9-0.2c0.2-0.2,0.5-0.4,0.7-0.6c0.1-0.2,0.3-0.3,0.4-0.3
				c0.1,0,0.2-0.1,0.4-0.1h3.2c0.1,0,0.3,0,0.4,0.1c0.1,0.1,0.2,0.2,0.2,0.4c0,0.5-0.2,1-0.7,1.6c-0.5,0.6-1.2,1.1-2.1,1.6
				c-0.9,0.4-2,0.7-3.3,0.7C32.5,21.8,31,21.2,29.8,20.1z M36.5,13.3L36.5,13.3c0-0.9-0.2-1.5-0.5-2c-0.3-0.5-0.8-0.7-1.4-0.7
				c-0.6,0-1.1,0.2-1.4,0.7c-0.3,0.5-0.5,1.1-0.5,1.9v0.1H36.5z"/>
			<path class="st0" d="M47.7,26.9c-0.4-0.2-0.6-0.5-0.6-0.7c0-0.1,0-0.2,0.1-0.3l0.5-0.4c0.1-0.1,0.2-0.1,0.3-0.1
				c0.1,0,0.2,0.1,0.4,0.2c0.2,0.1,0.5,0.2,0.8,0.2c0.2,0,0.4-0.1,0.6-0.2c0.1-0.1,0.2-0.3,0.2-0.6c0-0.2-0.1-0.4-0.2-0.5
				c-0.1-0.1-0.3-0.2-0.6-0.2c-0.1,0-0.3,0-0.6,0.1c-0.2,0.1-0.4,0.1-0.5,0.1c-0.1,0-0.3-0.1-0.4-0.2l-0.5-0.5
				c-0.1-0.1-0.1-0.2-0.1-0.3c0-0.1,0-0.3,0.1-0.5l0.5-1.2c-1.5-0.2-2.7-0.9-3.6-1.9c-0.9-1-1.4-2.3-1.4-4l0-1l0-1.1
				c0.1-1.9,0.7-3.4,1.8-4.4c1.2-1.1,2.7-1.6,4.5-1.6c1.4,0,2.6,0.3,3.6,0.8c1,0.5,1.7,1.2,2.2,1.9c0.5,0.7,0.7,1.4,0.8,2
				c0,0.2,0,0.4-0.2,0.5c-0.1,0.1-0.3,0.2-0.5,0.2h-3.3c-0.2,0-0.3,0-0.4-0.1c-0.1-0.1-0.2-0.2-0.3-0.4c-0.2-0.5-0.4-0.8-0.7-1.1
				c-0.3-0.2-0.6-0.3-1.1-0.3c-1.3,0-1.9,0.9-2,2.7l0,1l0,0.9c0,0.9,0.2,1.6,0.5,2c0.3,0.4,0.8,0.6,1.4,0.6c0.5,0,0.8-0.1,1.1-0.3
				c0.3-0.2,0.5-0.6,0.7-1.1c0.1-0.2,0.2-0.3,0.3-0.4c0.1-0.1,0.2-0.1,0.4-0.1h3.3c0.2,0,0.3,0.1,0.4,0.2c0.1,0.1,0.2,0.3,0.2,0.4
				c0,0.5-0.2,1.2-0.7,1.9c-0.4,0.7-1.2,1.4-2.1,2c-1,0.6-2.2,0.9-3.6,0.9l-0.5,1c0.1-0.1,0.2-0.1,0.4-0.1c0.2,0,0.3,0,0.4,0
				c0.6,0,1.1,0.2,1.4,0.6c0.4,0.4,0.5,1,0.5,1.7c0,0.7-0.2,1.2-0.6,1.7c-0.4,0.4-1,0.7-1.7,0.7C48.6,27.3,48.1,27.1,47.7,26.9z"/>
			<path class="st0" d="M59.1,20.2c-1.1-1-1.7-2.5-1.8-4.4c0-0.2,0-0.6,0-1.2s0-1,0-1.2c0.1-1.8,0.7-3.3,1.8-4.3
				c1.1-1,2.7-1.6,4.7-1.6c2,0,3.6,0.5,4.7,1.6c1.1,1,1.8,2.5,1.8,4.3c0,0.5,0,0.8,0,1.2s0,0.7,0,1.2c-0.1,1.9-0.7,3.3-1.8,4.4
				c-1.1,1-2.7,1.5-4.7,1.5S60.2,21.3,59.1,20.2z M65.3,17.8c0.3-0.4,0.5-1.1,0.6-2.1c0-0.2,0-0.5,0-1c0-0.5,0-0.9,0-1
				c0-0.9-0.2-1.6-0.6-2c-0.3-0.5-0.8-0.7-1.5-0.7c-0.7,0-1.2,0.2-1.5,0.7c-0.3,0.5-0.5,1.1-0.6,2l0,1l0,1c0,0.9,0.2,1.6,0.6,2.1
				c0.3,0.4,0.8,0.7,1.5,0.7C64.5,18.5,65,18.2,65.3,17.8z"/>
		</g>
	</g>
	<g>
		<g>
			<path class="st0" d="M1.9,37.7c-0.5-0.6-0.7-1.4-0.8-2.4l0-0.5l0-0.5c0-1,0.3-1.8,0.8-2.4C2.3,31.3,3,31,3.8,31
				c0.8,0,1.4,0.3,1.9,0.8v-3c0-0.1,0-0.2,0.1-0.3C5.9,28.6,6,28.5,6,28.5h1.7c0.1,0,0.2,0,0.2,0.1C8,28.7,8,28.8,8,28.9v9.2
				c0,0.1,0,0.2-0.1,0.3s-0.1,0.1-0.2,0.1H6.2c-0.1,0-0.2,0-0.2-0.1c-0.1-0.1-0.1-0.2-0.1-0.2v-0.4c-0.5,0.6-1.1,0.9-2,0.9
				C3,38.6,2.3,38.3,1.9,37.7z M5.4,36.3c0.2-0.3,0.3-0.6,0.3-1c0-0.3,0-0.4,0-0.5c0-0.1,0-0.3,0-0.5c0-0.4-0.1-0.7-0.3-0.9
				C5.2,33.1,4.9,33,4.6,33c-0.4,0-0.7,0.1-0.8,0.4c-0.2,0.2-0.3,0.6-0.3,1l0,0.4l0,0.4c0,0.4,0.1,0.8,0.3,1
				c0.2,0.2,0.4,0.4,0.8,0.4C5,36.7,5.2,36.5,5.4,36.3z"/>
			<path class="st0" d="M10.3,38.3c-0.4-0.2-0.7-0.5-0.9-0.8c-0.2-0.3-0.3-0.7-0.3-1.1c0-0.6,0.2-1.1,0.7-1.5c0.5-0.4,1.2-0.7,2-0.8
				l1.6-0.3v-0.2c0-0.3-0.1-0.6-0.2-0.8c-0.1-0.2-0.4-0.2-0.7-0.2c-0.2,0-0.3,0-0.4,0.1c-0.1,0.1-0.2,0.2-0.4,0.3
				c-0.1,0.1-0.2,0.2-0.3,0.2c0,0.1-0.1,0.1-0.1,0.1H9.9c-0.1,0-0.2,0-0.2-0.1c-0.1-0.1-0.1-0.1-0.1-0.2c0-0.3,0.1-0.5,0.4-0.8
				c0.2-0.3,0.6-0.6,1-0.8c0.5-0.2,1-0.3,1.7-0.3c1.1,0,1.9,0.3,2.4,0.8s0.8,1.2,0.8,2.1v4.2c0,0.1,0,0.2-0.1,0.2s-0.1,0.1-0.2,0.1
				h-1.6c-0.1,0-0.2,0-0.2-0.1c-0.1-0.1-0.1-0.2-0.1-0.2v-0.5c-0.2,0.3-0.5,0.5-0.8,0.7c-0.3,0.2-0.7,0.3-1.2,0.3
				C11.1,38.6,10.7,38.5,10.3,38.3z M13.1,36.5c0.2-0.3,0.4-0.7,0.4-1.2v-0.2l-1.1,0.2c-0.7,0.1-1.1,0.4-1.1,0.8
				c0,0.2,0.1,0.4,0.3,0.5s0.4,0.2,0.6,0.2C12.6,36.9,12.9,36.8,13.1,36.5z"/>
		</g>
	</g>
	<g>
		<g>
			<path class="st0" d="M21.7,41.4c-0.1-0.1-0.2-0.2-0.2-0.4V26.1c0-0.2,0-0.3,0.1-0.4c0.1-0.1,0.2-0.2,0.4-0.2H32
				c0.2,0,0.3,0.1,0.4,0.2c0.1,0.1,0.2,0.3,0.2,0.4v2.4c0,0.2-0.1,0.3-0.2,0.4c-0.1,0.1-0.2,0.2-0.4,0.2h-6.5v3.2h6.1
				c0.2,0,0.3,0.1,0.4,0.2c0.1,0.1,0.2,0.3,0.2,0.4v2.4c0,0.2-0.1,0.3-0.2,0.4c-0.1,0.1-0.2,0.2-0.4,0.2h-6.1V41
				c0,0.2,0,0.3-0.1,0.4c-0.1,0.1-0.2,0.2-0.4,0.2h-2.9C21.9,41.6,21.8,41.5,21.7,41.4z"/>
			<path class="st0" d="M35.4,41.3C34.8,41,34.3,40.6,34,40c-0.3-0.6-0.5-1.2-0.5-1.8c0-1,0.4-1.9,1.2-2.5c0.8-0.7,1.9-1.1,3.3-1.3
				l2.6-0.4v-0.3c0-0.6-0.1-1-0.3-1.2c-0.2-0.3-0.6-0.4-1.1-0.4c-0.3,0-0.5,0.1-0.7,0.2s-0.4,0.3-0.7,0.5c-0.2,0.2-0.3,0.3-0.5,0.4
				c-0.1,0.1-0.1,0.2-0.2,0.2h-2.5c-0.1,0-0.3,0-0.4-0.1c-0.1-0.1-0.1-0.2-0.1-0.4c0-0.4,0.2-0.9,0.6-1.4c0.4-0.5,0.9-1,1.7-1.3
				c0.8-0.4,1.7-0.6,2.8-0.6c1.8,0,3.1,0.4,3.9,1.3c0.9,0.8,1.3,2,1.3,3.4v7c0,0.2-0.1,0.3-0.1,0.4c-0.1,0.1-0.2,0.2-0.4,0.2h-2.6
				c-0.1,0-0.3-0.1-0.4-0.2c-0.1-0.1-0.2-0.2-0.2-0.4v-0.8c-0.3,0.5-0.7,0.9-1.3,1.2c-0.6,0.3-1.2,0.4-2,0.4
				C36.7,41.8,36,41.6,35.4,41.3z M40.1,38.4c0.4-0.4,0.6-1.1,0.6-1.9v-0.3l-1.8,0.3c-1.2,0.2-1.8,0.7-1.8,1.4
				c0,0.4,0.1,0.6,0.4,0.9c0.3,0.2,0.6,0.3,1,0.3C39.2,39.1,39.7,38.9,40.1,38.4z"/>
			<path class="st0" d="M50,41.4c-0.1-0.1-0.2-0.2-0.3-0.4l-4.1-10.7c0,0,0-0.1,0-0.2c0-0.2,0-0.3,0.1-0.4c0.1-0.1,0.2-0.1,0.4-0.1
				h2.5c0.3,0,0.5,0.2,0.6,0.5l2.3,6.9l2.3-6.9c0-0.1,0.1-0.2,0.2-0.3c0.1-0.1,0.2-0.1,0.4-0.1h2.6c0.1,0,0.2,0,0.3,0.1
				c0.1,0.1,0.1,0.2,0.1,0.4l0,0.2l-4,10.7c-0.1,0.2-0.2,0.3-0.3,0.4c-0.1,0.1-0.3,0.1-0.5,0.1h-2.4C50.2,41.6,50.1,41.5,50,41.4z"
				/>
			<path class="st0" d="M59.9,40.3c-1-1-1.5-2.5-1.5-4.4v-0.7c0.1-1.8,0.6-3.3,1.6-4.3c1-1,2.3-1.5,4-1.5c1.2,0,2.3,0.3,3.1,0.8
				c0.8,0.5,1.5,1.3,1.9,2.2c0.4,0.9,0.6,2,0.6,3.2v0.6c0,0.2-0.1,0.3-0.2,0.4c-0.1,0.1-0.2,0.2-0.4,0.2h-6.8v0.1
				c0,0.7,0.2,1.2,0.4,1.7c0.3,0.4,0.7,0.6,1.2,0.6c0.3,0,0.6-0.1,0.8-0.2c0.2-0.1,0.4-0.3,0.6-0.6c0.1-0.2,0.2-0.2,0.3-0.3
				c0.1,0,0.2-0.1,0.4-0.1h2.8c0.1,0,0.2,0,0.3,0.1c0.1,0.1,0.1,0.2,0.1,0.3c0,0.4-0.2,0.9-0.6,1.4c-0.4,0.5-1,1-1.8,1.4
				c-0.8,0.4-1.8,0.6-2.8,0.6C62.3,41.8,60.9,41.3,59.9,40.3z M65.7,34.4L65.7,34.4c0-0.8-0.1-1.4-0.4-1.8C64.9,32.2,64.5,32,64,32
				c-0.5,0-1,0.2-1.2,0.6c-0.3,0.4-0.4,1-0.4,1.7v0H65.7z"/>
			<path class="st0" d="M71.7,41.4c-0.1-0.1-0.2-0.2-0.2-0.4V25.8c0-0.2,0.1-0.3,0.2-0.4c0.1-0.1,0.2-0.2,0.4-0.2h2.7
				c0.2,0,0.3,0.1,0.4,0.2c0.1,0.1,0.1,0.2,0.1,0.4V41c0,0.2-0.1,0.3-0.1,0.4c-0.1,0.1-0.2,0.2-0.4,0.2h-2.7
				C71.9,41.6,71.8,41.5,71.7,41.4z"/>
			<path class="st0" d="M79,41.3c-0.6-0.3-1.1-0.7-1.4-1.3c-0.3-0.6-0.5-1.2-0.5-1.8c0-1,0.4-1.9,1.2-2.5c0.8-0.7,1.9-1.1,3.3-1.3
				l2.6-0.4v-0.3c0-0.6-0.1-1-0.3-1.2c-0.2-0.3-0.6-0.4-1.1-0.4c-0.3,0-0.5,0.1-0.7,0.2c-0.2,0.1-0.4,0.3-0.7,0.5
				c-0.2,0.2-0.3,0.3-0.5,0.4c-0.1,0.1-0.1,0.2-0.2,0.2h-2.5c-0.1,0-0.3,0-0.4-0.1c-0.1-0.1-0.1-0.2-0.1-0.4c0-0.4,0.2-0.9,0.6-1.4
				c0.4-0.5,0.9-1,1.7-1.3c0.8-0.4,1.7-0.6,2.8-0.6c1.8,0,3.1,0.4,3.9,1.3c0.9,0.8,1.3,2,1.3,3.4v7c0,0.2-0.1,0.3-0.1,0.4
				c-0.1,0.1-0.2,0.2-0.4,0.2h-2.6c-0.1,0-0.3-0.1-0.4-0.2c-0.1-0.1-0.2-0.2-0.2-0.4v-0.8c-0.3,0.5-0.7,0.9-1.3,1.2
				c-0.6,0.3-1.2,0.4-2,0.4C80.3,41.8,79.6,41.6,79,41.3z M83.6,38.4c0.4-0.4,0.6-1.1,0.6-1.9v-0.3l-1.8,0.3
				c-1.2,0.2-1.8,0.7-1.8,1.4c0,0.4,0.1,0.6,0.4,0.9c0.3,0.2,0.6,0.3,1,0.3C82.7,39.1,83.2,38.9,83.6,38.4z"/>
		</g>
	</g>
</g>
</svg>
