<?xml version="1.0" encoding="utf-8"?>
<!-- Generator: Adobe Illustrator 19.0.0, SVG Export Plug-In . SVG Version: 6.00 Build 0)  -->
<svg version="1.1" xmlns="http://www.w3.org/2000/svg" xmlns:xlink="http://www.w3.org/1999/xlink" x="0px" y="0px"
	 viewBox="0 0 750 500" style="enable-background:new 0 0 750 500;" xml:space="preserve">
<style type="text/css">
	.st0{fill:#3457FF;}
	.st1{opacity:0.28;fill:#5E1473;}
	.st2{fill:#FFFFFF;}
	.st3{fill:#5672DE;}
	.st4{fill:#F4B3D9;}
	.st5{fill:#F9D6EB;}
	.st6{fill:#EA6BB6;}
	.st7{opacity:0.35;}
	.st8{fill:#EE9956;}
	.st9{fill:#F4BA8E;}
	.st10{fill:#DB0081;}
	.st11{fill:#5E1473;}
	.st12{fill:#FFC228;}
</style>
<g id="BACKGROUND">
	<rect x="1712.1" y="47.3" class="st0" width="750" height="500"/>
</g>
<g id="OBJECTS">
	<g>
		<path class="st1" d="M221.3,416.3c69.9-7.5,325.9-2.9,352.4,20.7c26.5,23.6-33.6,61.6-67.6,54.5c-34.1-7.1-93.8-41.1-163.4-32.3
			C273.2,468,150.8,423.9,221.3,416.3z"/>
		<g>
			<g>
				<g>
					<path class="st2" d="M207.9,396h296.7c2.3,0,4.1-1.9,4.1-4.1V215.2c0-2.3-1.9-4.1-4.1-4.1H207.9c-2.3,0-4.1,1.9-4.1,4.1v176.7
						C203.7,394.2,205.6,396,207.9,396z"/>
				</g>
				<g>
					<path class="st3" d="M216.9,373.5h278.7c1,0,1.7-0.8,1.7-1.7V221.3c0-1-0.8-1.7-1.7-1.7H216.9c-1,0-1.7,0.8-1.7,1.7v150.4
						C215.1,372.7,215.9,373.5,216.9,373.5z"/>
				</g>
				<g>
					<circle class="st4" cx="356.2" cy="385.7" r="7.2"/>
				</g>
				<g>
					<g>
						<path class="st5" d="M233.6,355.2H378c1.2,0,2.2-1,2.2-2.2v-83.5c0-1.2-1-2.2-2.2-2.2H233.6c-1.2,0-2.2,1-2.2,2.2v83.5
							C231.4,354.2,232.4,355.2,233.6,355.2z"/>
					</g>
					<g>
						<path class="st4" d="M316.7,329.9h-72.9c-0.7,0-1.4,0.6-1.4,1.4v10.1c0,0.7,0.6,1.4,1.4,1.4h72.9c0.7,0,1.4-0.6,1.4-1.4v-10.1
							C318.1,330.5,317.5,329.9,316.7,329.9z"/>
					</g>
					<g>
						<path class="st4" d="M316.7,313.3h-72.9c-0.7,0-1.4,0.6-1.4,1.4v8.8c0,0.7,0.6,1.4,1.4,1.4h72.9c0.7,0,1.4-0.6,1.4-1.4v-8.8
							C318.1,313.9,317.5,313.3,316.7,313.3z"/>
					</g>
					<g>
						<path class="st4" d="M316.7,296.9h-72.9c-0.7,0-1.4,0.6-1.4,1.4v8.8c0,0.7,0.6,1.4,1.4,1.4h72.9c0.7,0,1.4-0.6,1.4-1.4v-8.8
							C318.1,297.5,317.5,296.9,316.7,296.9z"/>
					</g>
					<g>
						<path class="st4" d="M316.7,280.5h-72.9c-0.7,0-1.4,0.6-1.4,1.4v8.8c0,0.7,0.6,1.4,1.4,1.4h72.9c0.7,0,1.4-0.6,1.4-1.4v-8.8
							C318.1,281.1,317.5,280.5,316.7,280.5z"/>
					</g>
				</g>
				<g>
					<g>
						<path class="st6" d="M337.2,319.4h144.4c1.2,0,2.2-1,2.2-2.2v-83.5c0-1.2-1-2.2-2.2-2.2H337.2c-1.2,0-2.2,1-2.2,2.2v83.5
							C335,318.4,336,319.4,337.2,319.4z"/>
					</g>
					<g>
						<path class="st4" d="M424.7,263.9h50c0.7,0,1.4-0.6,1.4-1.4v-22.9c0-0.7-0.6-1.4-1.4-1.4h-50c-0.7,0-1.4,0.6-1.4,1.4v22.9
							C423.4,263.3,424,263.9,424.7,263.9z"/>
					</g>
					<g>
						<path class="st4" d="M424.7,280.6h50c0.7,0,1.4-0.6,1.4-1.4v-8.8c0-0.7-0.6-1.4-1.4-1.4h-50c-0.7,0-1.4,0.6-1.4,1.4v8.8
							C423.4,279.9,424,280.6,424.7,280.6z"/>
					</g>
					<g>
						<path class="st4" d="M424.7,296.9h50c0.7,0,1.4-0.6,1.4-1.4v-8.8c0-0.7-0.6-1.4-1.4-1.4h-50c-0.7,0-1.4,0.6-1.4,1.4v8.8
							C423.4,296.3,424,296.9,424.7,296.9z"/>
					</g>
					<g>
						<path class="st4" d="M424.7,313.3h50c0.7,0,1.4-0.6,1.4-1.4v-8.8c0-0.7-0.6-1.4-1.4-1.4h-50c-0.7,0-1.4,0.6-1.4,1.4v8.8
							C423.4,312.7,424,313.3,424.7,313.3z"/>
					</g>
					<g>
						<path class="st4" d="M348.1,280.6h50c0.7,0,1.4-0.6,1.4-1.4v-8.8c0-0.7-0.6-1.4-1.4-1.4h-50c-0.7,0-1.4,0.6-1.4,1.4v8.8
							C346.8,279.9,347.4,280.6,348.1,280.6z"/>
					</g>
					<g>
						<path class="st4" d="M348.1,296.9h50c0.7,0,1.4-0.6,1.4-1.4v-8.8c0-0.7-0.6-1.4-1.4-1.4h-50c-0.7,0-1.4,0.6-1.4,1.4v8.8
							C346.8,296.3,347.4,296.9,348.1,296.9z"/>
					</g>
					<g>
						<path class="st4" d="M348.1,313.3h50c0.7,0,1.4-0.6,1.4-1.4v-8.8c0-0.7-0.6-1.4-1.4-1.4h-50c-0.7,0-1.4,0.6-1.4,1.4v8.8
							C346.8,312.7,347.4,313.3,348.1,313.3z"/>
					</g>
				</g>
			</g>
			<rect x="319" y="396" class="st2" width="74.3" height="20.6"/>
			<path class="st2" d="M285.1,436.7h142.3c3.9,0,7.1-3.2,7.1-7.1c0-10.2-8.2-18.4-18.4-18.4H296.4c-10.2,0-18.4,8.2-18.4,18.4
				C278,433.5,281.2,436.7,285.1,436.7z"/>
			<g class="st7">
				<path class="st2" d="M310,276c-1.6-1.9-3.6-3.5-5.3-5.2c-3.8-3.8-7.7-7.5-11.5-11.3c-13.1-12.8-26.9-25.7-38.9-39.9h14.2
					c10,8.7,19.4,18.1,29,27c7.2,6.7,14.7,13.3,21.4,20.5c5.2,5.5,7.3,13.5,1.4,19.3c-5.5,5.5-14,5.5-21.2,5.9
					c-3.6,0.2-8.2,1.2-12.1,1.1c1.1,1.5,2.2,3.3,3,4.4c11.9,15.2,23.4,30.8,34.4,46.8c6.5,9.5,13,19.2,19.2,29h-16.4
					c-3-4.8-6.1-9.5-9.2-14.2c-10.8-16.1-22-32-33.7-47.5c-2.7-3.6-5.5-7.2-8.3-10.8c-2.7-3.4-5.7-6.6-5.2-11.3
					c0.9-8.9,10.8-9.4,17.7-9.7c4.8-0.2,9.6-0.5,14.4-0.7c1.7-0.1,7.3,0,8.4-1.8C311.2,277.7,310.7,276.7,310,276z"/>
				<path class="st2" d="M467.1,373.5h-86.9c-26.5-31.7-56.3-69.6-52-72.8c7.4-5.5,54.1-9.4,53.2-14.4c-0.6-3.4-44.3-41.6-72-66.7
					h73.4c0.1,0.1,0.2,0.2,0.3,0.3c49.8,48.8,66.2,74.7,63.8,79.7c-2.4,5-43.1,3.9-44.4,8.4C401.9,310.6,438.7,344.7,467.1,373.5z"
					/>
			</g>
		</g>
		<g>
			<path class="st8" d="M500.9,288.6c-11.9,4.2-21.2,87.9-20.7,92c1,7.4,51.9,74.7,51.9,74.7l8-9.8l-29.9-64.7
				c0,0,24.3-61.7,25.5-71.8C536.8,298.9,536.1,276.1,500.9,288.6z"/>
			<path class="st9" d="M536.8,284.2c14.8,8.7,7.8,45.3,2.8,60.4c-5,15.1-14.5,26.3-11.7,32.4c2.8,6.2,8.4,26.8,5.6,37.5
				c-2.8,10.6-12.3,45.9-12.3,45.9h-10.6c0,0-4.5-66.6-6.2-75c-1.7-8.4-6.7-72.7,0-90.6C507.1,287.4,524.5,277,536.8,284.2z"/>
			<path class="st3" d="M522.9,183.4c16.6,3.7,24.6,19.6,17.3,39.8c-8.3,22.8-0.4,67.7-0.4,67.7s-15.1,5-24.3,4.6
				c-9.2-0.4-20-6.7-20-6.7s-3.7-47.4-10-63.3C479.2,209.5,487.4,175.5,522.9,183.4z"/>
			<path d="M492.3,259.5c10.2,5,33.5,3.1,44.7-2.4c9,27.5,15.6,72.9,13.4,86.3c-2.2,13.4-3.2,20.2-4.9,21.7
				c-0.4,0.3-2.4,0.5-5.3,0.6c-1.3,0-0.2-15.6-1.8-15.6c-1.1,0-4.9,15.7-6,15.7c-10.1-0.1-22.4-0.6-22.4-0.6s-35.2-6.1-37.2-7.8
				c-1.9-1.7,10.9-31.3,16.1-42.4C495,301.6,492.3,259.5,492.3,259.5z"/>
			<path class="st3" d="M500.2,182.6c-16.4,7-25.5,29.4-25.4,38.9c0.1,9.5,0,6.7,0,6.7l16.9-2.8L500.2,182.6z"/>
			<path class="st3" d="M513.2,180c19.1,0,29.7,10.7,34.2,29.3c2.5,10.4,4.1,16.1,4.1,16.1h-21.8L513.2,180z"/>
			<path class="st10" d="M515.7,178.3c2.8,0.2,3.7,4.1,4.1,7.3c0.4,3.2-5.5,16.2-6.6,16.2c-1.1,0-6.5-6.9-6.5-6.9l-6.6,7.8
				c0,0-2.6-17.4-2.1-19.1C498.5,181.9,501.2,177.1,515.7,178.3z"/>
			<path class="st8" d="M506.1,192.1c7.1,2.3,7.9-2.3,9.5-5.5c1.7-3.2-1.9-23.6-4-24.9c-2.1-1.2-7.5,1.7-8.5,3.5
				C502.1,167,498.4,189.6,506.1,192.1z"/>
			<path class="st8" d="M475.8,231.2c-0.5,7.9,0.7,29.5,2.7,31.5c2,2,9.9-29.3,9.9-29.3L475.8,231.2z"/>
			<g>
				<path class="st10" d="M508.3,260.6c-0.2-2.2-0.2-5-0.1-8c0.1-4.8,0.1-9.8-0.8-13.3l-0.5-2.1c-2-7.9-2.9-11.5-3.9-20.4
					c-0.5-4.1,0.2-11.3,0.6-14.2c0.2-1.4,0.2-2.5,0.2-3.4c0-2.5,0-4,2.7-6.9l1,0.9c-2.3,2.5-2.3,3.7-2.3,6c0,0.9,0,2.1-0.2,3.6
					c-0.3,2.8-1,9.9-0.6,13.9c1,8.9,1.9,12.4,3.9,20.2l0.5,2.1c0.9,3.6,0.9,8.7,0.8,13.6c0,2.9-0.1,5.7,0.1,7.9L508.3,260.6z"/>
			</g>
			<path class="st10" d="M486.5,226.2l1.9,7.1c0,0-13.5,3.1-13.6,2.8c-0.1-0.3-0.5-7.3,0-8C475.2,227.4,486.5,226.2,486.5,226.2z"/>
			<path class="st9" d="M482.3,233.7c2.4-13.5,14.9-28.1,12.8-33.9c-0.3-0.9-0.4-1.9-0.2-3c-1.1-2.5-1.6-5.2-1.4-8
				c0.1-0.6,0.6-1.1,1.2-1c1.5,0.4,1.6,2.1,1.9,3.5c2.7-4.7,7.4-9.1,10-7.4c4.2,2.8,1.9,12.4-1.3,15c-3.1,2.6-4,8.1-4.4,20
				c-0.3,8.5-8,48.5-18.2,48.2C472.7,266.9,481.1,240.5,482.3,233.7z"/>
			<path class="st8" d="M550.6,231.9c1.1,3.6,4.7,31.1-0.1,35.2c-4.8,4.2-56.2,1-62.7,0.8c-14.4-0.5-17.8-8.5-16.4-9.7
				c1.4-1.2,3.5,2.8,7.7,3.1c3.1,0.2,6.3,0.5,7.8,0.6c3.5,0.2-6.1-3.4-6-4.9c0.1-1.5,7.7,0,10.3,2.4c4.1,3.8,42-1.2,44.1-3.7
				c2.1-2.6-0.3-24.5-0.3-24.5L550.6,231.9z"/>
			<path d="M493,152c-5.4-12.8,9.6-28,24.5-22.9c11.9,4.1,15.8,15.1,15.8,15.1s8.5-10.3,18.9-5.5c17.4,7.9,2,31.4-4.2,36.6
				c-6.2,5.2-1.9,19.7-1.9,19.7s-11.9-2.4-13.7-13.3c-1.9-10.9,9.3-24.3,9.3-28c0-6.6-9.4-5.3-9.4-5.3s0.5,11.3-2.4,15.9
				c-2.8,4.7-13.5,7.1-13.5,7.1L493,152z"/>
			<path class="st10" d="M533.1,227.1c0.3-1,1.2-1.7,2.2-1.7c4,0,13.5,0,15.6,0c2.7-0.1,2,6.4,1.6,7.4c-0.3,0.7-11.8,0.6-17.7,0.5
				c-1.7,0-2.9-1.6-2.5-3.3L533.1,227.1z"/>
			<path class="st9" d="M501.6,177.2c-6-1.6-12.2-10.9-9.1-24.3c3.1-13.3,9.7-21.8,20.7-18.6c11,3.2,14.4,9,13.6,20.4
				C526,166.1,509.6,179.3,501.6,177.2z"/>
			<path class="st9" d="M526.3,153.4c4.3-0.3,5,0.4,3.5,4.7c-1.5,4.3-6.2,3.7-6.2,3.7L526.3,153.4z"/>
			<path d="M510.1,132.7c-2.1,5.8,4,15.8,8,19.2c3.9,3.4,9.2,1,9.2,1l2-5.9l-5.6-10.6l-9.5-5.8L510.1,132.7z"/>
			<path d="M510.1,132.7c0,0-2.2,6-5.5,8.9c-3.3,3-9.9,4.1-9.9,4.1s4.2-11.6,8.5-12.9C507.4,131.4,510.1,132.7,510.1,132.7z"/>
			<path class="st8" d="M499.4,153.8c0.4,0.7,1,13.7-0.1,14.1c-1.1,0.4-5,0.2-5.7-0.6C493,166.4,498.5,152.3,499.4,153.8z"/>
			<path class="st10" d="M522,457.2c0,0-2.4,1.6-5.4,1.6s-6.3-1.6-6.3-1.6s0.3,9.8-4.1,11.8c-4.5,2-12.7,4.2-13.2,6
				c-0.5,1.7,0,3.2,0,3.2s24.4,1.7,27.3,0C523.3,476.5,522,457.2,522,457.2z"/>
			<path class="st10" d="M538.3,441.5c2.8,2.2,10.4,10.5,9.6,13.8c-0.7,3.3-16.7,20.4-18.1,19.9c-0.7-0.2-1.4-1.3-2-2.3
				c-0.7-1.2-0.5-2.7,0.4-3.8c2.1-2.5,5.8-7.2,5.6-8.7c-0.2-2.1-4-8.4-4-8.4s2.2-1.4,5-3.7C537.4,446.2,538.3,441.5,538.3,441.5z"/>
		</g>
		<g>
			<path d="M254.8,38.6c2.6,0.3,16.8,5.1,14.1,7.8c-2.7,2.7-1.5,8.4,2.1,10.2c3.6,1.8,6,7.4,3.9,9.9c-2.1,2.4-6.6,7.6-3.9,9.4
				c2.7,1.8,2.6,10.7,0,10.6c-2.6-0.1-4.3,1.1-3.4,5.8c0.9,4.7,0.2,6.1-2.3,8.2c-2.5,2.1-28,4.7-29.9,0c-1.9-4.7-15.8,1.4-17-0.7
				c-1.2-2.1-7.6-12-8.8-11.8c-1.1,0.2-3.7-2.5-3.1-6.6c0.6-4.1,3.8-11.1,3.1-14.9c-0.7-3.7-0.8-9,2.5-12.9c3.4-3.9,3.8-2,4.2-7.1
				c0.4-5.2,0.5-7.3,5.3-8c4.8-0.7,5.3-2.9,8.3-5.1c3-2.2,6.7-4.8,10.3-2.2C243.9,33.8,250.8,38.2,254.8,38.6z"/>
			<path class="st3" d="M245,91.2c12.4-1.2,50,43.2,44.9,47.5c-5.1,4.2-21.1-4.3-30.5-17.2C250.1,108.5,245,91.2,245,91.2z"/>
			<path class="st3" d="M234.3,87.9c-17.4,0.8-16.1,29.3-14.7,40.3c3.3,25.2-9.9,41.6-7.5,67.8c0.5,5.2,53.7,1.9,57.4-3.4
				c2-2.9-9.9-15.8-10.9-32.6c-0.8-13.6,5.6-23.1,5.3-35.5C263.7,113.3,257.4,86.9,234.3,87.9z"/>
			<path class="st11" d="M219.7,184.9c-9.1,5.4,28.7,18.8,31.9,26.2c3.2,7.4,54.7,9.5,64.2,7.9c9.5-1.6,23.2-4.2,18.4-16.3
				c-2.5-6.4-46.2-19.1-63.3-19.1C247.5,183.6,224,182.5,219.7,184.9z"/>
			<path class="st11" d="M216.9,185.8c-9.1,5.4-3.2,17.9,0,25.3c3.2,7.4,54.7,9.5,64.2,7.9c9.5-1.6,23.2-4.2,18.4-16.3
				C294.8,190.6,225.8,180.6,216.9,185.8z"/>
			<path class="st11" d="M274.4,218.7c3.1-19.2,23.1-21.2,25.8-15.1c3.7,8.2,0.4,41-2.9,64.4c-7.2-0.1-14.4-0.8-21.5-2.1
				C273.9,249.2,272.7,229.1,274.4,218.7z"/>
			<path class="st9" d="M292.4,268c-1.9,13.3,1.2,23.5,0.7,24.4c-1.4,2.5-8.7,4-12,0.9c-1.5-1.4-3.7-13.2-5.3-27.4
				C282.9,267.2,285.2,267.9,292.4,268z"/>
			<path class="st9" d="M335.2,291.5c-1.2,2.6-7.5,2.3-11-0.4c-1.6-1.2-4.9-11.7-8-24.5c7.4-1.3,10.8-1.8,17.5-4.9
				C333,278.1,335.7,290.4,335.2,291.5z"/>
			<path class="st11" d="M309.5,219.9c1.3-19.4,21-23.3,24.3-17.5c4.1,7.1,4.3,35,3.5,57.7c-6.7,3-13.8,5.1-21.2,6.4
				C312.3,250.5,308.8,230.6,309.5,219.9z"/>
			<path class="st10" d="M279.8,295c-1.8,9.3,4.5,7.6,6.8,8.4c4.5,1.5,27.8,1,28.6-1.8c1.8-6.4-15.2-10.6-20.8-11.6
				C288.9,288.9,280.2,292.8,279.8,295z"/>
			<path class="st9" d="M231,179.5c0.4,0.4,0.8,0.7,0.9,0.8c1.9,1.8,5-1.5,8.7-2.1c3.8-0.6,9.9,5,9.5,7.9c-0.4,3-12.4,2.5-15.1,1.7
				c-0.5-0.1-2.3-1-5.1-2.2C229.8,183.8,230.8,181.7,231,179.5z"/>
			<path class="st3" d="M190.1,152.2c0.8-2.5,15.4-39.7,26.6-53.7c5.4-6.8,19.5-2.1,14.6,12.3c-1.5,4.5-21.9,38.2-21.9,40.3
				c0,2,19.7,24.8,24,29.7c-0.5,2.1-3.9,3.6-3.9,5.5C218,179.1,189.5,154.3,190.1,152.2z"/>
			<path class="st10" d="M324.9,291.8c-4.6,8.3,3.4,7.7,6.4,8.6c4.6,1.4,24.3,8.5,26,6c3.7-5.6-17.1-17.4-22.5-19.4
				C333.3,286.5,326.1,289.8,324.9,291.8z"/>
			<path class="st8" d="M233,90.1c-0.3,4.5,6.1,7.9,8.5,7.5c2.4-0.4,5.6-1.4,5.8-3.7c0.2-2.8,1.3-19.9-2.3-22.7
				C241.5,68.3,233.8,77.2,233,90.1z"/>
			<g>
				<path class="st9" d="M300.5,95.9c1.2-5.2,0.6-7.9,1.4-11.6c0.3-1.2,1.4-6,0.7-6.4c-0.7-0.4-1.9,5.1-2.2,4.7
					c-0.2-0.4,1.7-7.6,1-8c-0.7-0.3-2.5,6.6-2.8,6.3c-0.4-0.4,1.5-8.1,0.9-8.2c-1-0.2-2.1,7.8-2.5,7.7c-0.3-0.1,1-6.1,0-6.5
					c-0.9-0.4-2.4,9.1-2.4,10.1c0,1-3.7-4.9-5.1-3.7c-0.8,0.6,1.9,4.9,4.3,7.6c1.9,2.1-0.2,4.4-1.4,7.7c-0.8,2,7.8,1.7,7.8,1.7
					L300.5,95.9z"/>
			</g>
			<path class="st10" d="M244.7,84.8c0.4,1.2,1.3,3.4,2,5.2c2.1,4.9-2.9,5.1-1.8,7.3c1.1,2.1,3.2,2.8,5.4,3c3.2,0.3-0.5-13.8-2.6-15
				C244.9,83.7,244.7,84.8,244.7,84.8z"/>
			<g>
				<path class="st3" d="M299.2,105.3c1.3-9.3,1.9-13.2,1.9-13.2l-7.3-2c0,0-9.8,27.9-11.5,34c-1.7,6.1-1.7,15,3.4,16.7
					C294.4,143.3,297.9,114.6,299.2,105.3z"/>
			</g>
			<path class="st9" d="M227.8,62.8c-2.3,10.9,3.6,21.3,13.1,23.3c9.5,2,15.4-6,17.7-16.9c2.3-10.9,0.1-20.6-9.4-22.6
				C239.7,44.7,230.1,51.9,227.8,62.8z"/>
			<path class="st8" d="M255.7,69c-1.7-0.3-7.8,11.2-7.6,12.3c0.1,1.1,3.5,2,5,1C254.7,81.3,255.7,69,255.7,69z"/>
			<path d="M259.4,53.5c-0.5,3.4-3.2,6.4-5.7,5.5c-2.4-0.9-3.6-2.4-5,0c-1.4,2.4-2,3.5-4.2,3.7c-2.2,0.2-3.8-2.6-5.9,0
				c-2,2.6-3.5-4.6-5.7-4.6c-2.2,0-4.9,7-2.7,8.3c2.2,1.3,2.8,4,0.7,4c-2.2,0-1.8,2.4-3.6,2.6c-1.9,0.2-5.8-2.4-5.8-2.4v-8.3
				l4.3-8.8l7.1-9l5.7-2.8l4.7-1.5l15.4,4.2l1.5,9.2H259.4z"/>
			<g>
				<path class="st10" d="M250.9,183.6c-0.2-1.2-0.4-2.6-0.7-4.1c-1.2-6.6-2.9-15.8-0.6-26.4c1.9-8.7,1.3-17.9,0.8-26.8l-0.1-1.1
					c-0.5-7.8-1.9-19-6.3-28.2l1.4-0.7c4.5,9.4,6,20.8,6.4,28.8l0.1,1.1c0.5,9,1.1,18.3-0.8,27.2c-2.2,10.3-0.6,19.3,0.6,25.8
					c0.3,1.5,0.5,2.9,0.7,4.2L250.9,183.6z"/>
			</g>
			<path class="st10" d="M234.1,83.3c3.1,3.3,12.4,9.4,10.4,15.2c-0.7,2-0.7,4.2-1.8,3.5c-3.1-2-11.5-9.3-10.3-14.1
				C233,85.4,234.1,83.3,234.1,83.3z"/>
		</g>
		<g class="st7">
			<path class="st2" d="M295.7,413.7c4-4.2,9.9-3.5,15.2-3.4c5.8,0.1,12.6,0.2,18.4,0c2.1-0.1,1.7-4-0.6-3.9
				c-10.8,0.5-14.6-0.1-22.4,0.1c-4.6,0.2-10.8,0.5-12.9,5.3C292.8,413.4,294.5,415,295.7,413.7L295.7,413.7z"/>
		</g>
		<g class="st7">
			<path class="st2" d="M336.5,410.4c5.8,0,12.6,0.2,18.4,0c2.1-0.1,1.7-4-0.6-3.9c-10.8,0.5-10.1,0-17.9,0
				C332.7,406.5,333.1,410.4,336.5,410.4z"/>
		</g>
		<g>
			<path class="st3" d="M630.4,211.6c5,0.8,8.8,1.9,11.4,3.3c2.6,1.4,5.5,3.8,8.7,7.2c3.1,3.3,5.3,6.4,6.8,9.4
				c3.2,6.5,4.3,13.3,3.2,20.3c-1,6-3.1,11.1-6.4,15.4c-3.3,4.3-8.1,7.9-14.6,10.8c-4.2,2-7.2,3.7-9,5.2c-1.8,1.5-3.4,3.6-4.7,6.1
				c-1.2,2.2-2.2,3.5-2.9,4c-0.8,0.5-2.1,0.6-4,0.3c-1.5-0.2-5.4-1.3-11.9-3.2c-6.4-1.9-10.2-3-11.4-3.5c-1.2-0.5-1.9-1.1-2.2-2
				c-0.3-0.9-0.3-1.7-0.2-2.5c0.2-1.2,1.6-4.4,4.3-9.5c2.6-5.1,4.7-8.3,6.1-9.6c1.6-1.5,4.4-2.9,8.2-4.1c3.5-1.1,6.1-2.2,7.7-3.4
				c1.7-1.2,2.8-2.8,3.4-5l0.3-0.8l0.1-0.6c0.6-3.5-0.9-5.6-4.4-6.1c-2.8-0.5-7.3,2.4-13.2,8.5c-2,2-3.4,3-4.2,2.9
				c-0.3,0-0.5-0.1-0.6-0.3l-0.6-0.1c-2.5-0.8-6.7-5.1-12.7-12.7c-2.1-2.7-3-4.7-2.8-6.1c0.2-1.4,1.4-3.4,3.5-6.1
				c3.5-4.6,8.4-8.6,14.7-12.1c6.3-3.5,12.3-5.5,18.1-6.1C623.9,210.9,627,211.1,630.4,211.6z M604.3,295.5c4.6,0.7,8.3,2.7,11.1,6
				c2.8,3.2,3.8,7.6,2.9,13.2c-0.4,2.3-0.9,4-1.7,5.1c-1.4,2.7-3.8,4.8-7.3,6.2c-3.4,1.5-6.8,1.9-10,1.4c-4.7-0.8-8.3-2.9-10.7-6.3
				c-2.4-3.4-3.3-7.8-2.6-12.9l0.2-1.4c0.4-2.6,1.4-4.5,3-5.8c3-3.3,6.6-5.1,10.7-5.6C601.2,295.2,602.6,295.2,604.3,295.5z"/>
		</g>
		<g>
			<path class="st2" d="M577.7,99.3c3.1-1,5.5-1.5,7.4-1.5c1.9,0,4.2,0.5,7,1.5c2.7,0.9,4.9,2.1,6.6,3.3c3.7,2.7,6.3,6.2,7.7,10.5
				c1.2,3.6,1.5,7.2,0.9,10.6c-0.6,3.4-2.3,6.8-5.1,10.3c-1.8,2.3-3,4.2-3.5,5.6c-0.6,1.4-0.9,3-0.9,4.8c0,1.6-0.2,2.6-0.5,3.1
				c-0.3,0.5-1,1-2.2,1.3c-0.9,0.3-3.5,0.9-7.6,1.7c-4.2,0.8-6.7,1.3-7.5,1.4c-0.8,0.1-1.4-0.1-1.8-0.5c-0.4-0.4-0.7-0.9-0.9-1.4
				c-0.2-0.7-0.4-2.9-0.4-6.6c0-3.7,0.2-6.1,0.6-7.2c0.5-1.3,1.6-2.9,3.4-4.7c1.7-1.6,2.8-3,3.4-4.2c0.6-1.2,0.7-2.4,0.5-3.8l0-0.5
				l-0.1-0.4c-0.7-2.1-2.1-2.9-4.3-2.2c-1.7,0.6-3.4,3.5-5,8.7c-0.5,1.7-1,2.7-1.5,2.8c-0.2,0.1-0.3,0.1-0.4,0l-0.4,0.1
				c-1.7,0.3-5.3-0.9-10.9-3.4c-2-0.9-3.1-1.8-3.3-2.6c-0.3-0.8-0.2-2.3,0.2-4.5c0.6-3.6,2.2-7.3,4.7-11.1c2.5-3.8,5.3-6.7,8.4-8.8
				C573.8,100.8,575.6,100,577.7,99.3z M587.5,154.3c2.8-0.9,5.5-0.9,8,0.1c2.5,1,4.4,3.2,5.5,6.6c0.5,1.4,0.7,2.5,0.6,3.4
				c0,1.9-0.8,3.8-2.3,5.6c-1.5,1.8-3.3,3.1-5.2,3.7c-2.9,1-5.5,0.8-7.9-0.4c-2.4-1.2-4.1-3.4-5.2-6.5l-0.3-0.9
				c-0.5-1.6-0.5-2.9,0-4.1c0.8-2.7,2.2-4.8,4.4-6.3C585.7,155,586.5,154.6,587.5,154.3z"/>
		</g>
		<g>
			<path class="st3" d="M640.6,15c2.1,0.8,3.7,1.6,4.7,2.5c1,0.8,2.1,2.2,3.2,3.9c1.1,1.7,1.8,3.3,2.2,4.7c0.9,3.1,0.7,6.2-0.4,9.2
				c-0.9,2.5-2.3,4.6-4.1,6.2c-1.8,1.6-4.3,2.8-7.3,3.4c-2,0.5-3.5,1-4.4,1.5c-0.9,0.5-1.8,1.3-2.6,2.3c-0.7,0.8-1.3,1.3-1.6,1.5
				c-0.4,0.2-1,0.1-1.8-0.2c-0.6-0.2-2.3-1.1-4.9-2.4c-2.7-1.4-4.2-2.2-4.7-2.5c-0.5-0.3-0.7-0.7-0.8-1.1c0-0.4,0-0.8,0.1-1.1
				c0.2-0.5,1.1-1.8,2.7-3.8c1.6-2,2.8-3.2,3.5-3.7c0.9-0.5,2.2-0.9,3.9-1.1c1.6-0.2,2.9-0.4,3.7-0.8s1.5-1,1.9-1.9l0.2-0.3l0.1-0.3
				c0.6-1.5,0.1-2.5-1.4-3.1c-1.2-0.5-3.4,0.4-6.6,2.6c-1.1,0.7-1.8,1-2.1,0.9c-0.1,0-0.2-0.1-0.2-0.2l-0.3-0.1
				c-1-0.6-2.5-2.8-4.5-6.7c-0.7-1.4-0.9-2.3-0.7-2.9c0.2-0.6,0.9-1.4,2.1-2.4c1.9-1.7,4.4-3,7.5-4c3.1-1,5.9-1.3,8.5-1.1
				C637.8,14.2,639.2,14.5,640.6,15z M621.8,49.6c2,0.7,3.4,1.9,4.4,3.6c0.9,1.7,1,3.7,0.1,6c-0.4,1-0.8,1.7-1.2,2.1
				c-0.9,1.1-2.1,1.8-3.7,2.1c-1.6,0.3-3.1,0.2-4.5-0.3c-2-0.8-3.4-2-4.2-3.7c-0.8-1.7-0.8-3.7,0-5.9l0.2-0.6c0.4-1.1,1-1.8,1.8-2.3
				c1.6-1.2,3.3-1.7,5.2-1.5C620.4,49.2,621.1,49.3,621.8,49.6z"/>
		</g>
		<g>
			<path class="st2" d="M114.3,186.9c2.4-1.1,4-1.5,4.8-1.4c0.5,0,1,0.7,1.7,2.1c1.2,2.7,3.1,8.2,5.6,16.6
				c11.9,36,18.6,60.5,20.1,73.6l0.3,4.4l-11.8,5.2l-7.3,3.5c-2.5,1.1-4.4,1.6-5.7,1.4c-1.3-0.2-2.4-1.1-3.5-2.9
				c-1.1-1.7-2.7-4.9-4.7-9.6l-2.8-6.4c-4.4-10-9.3-21.6-14.8-34.9c-5.5-13.3-8.8-21.5-9.8-24.7c-1.1-2.9-1.5-5.1-1.2-6.6
				c0.7-3,5.3-7,13.7-12C104.9,191.5,110.1,188.8,114.3,186.9z M131.9,294.7c6.1-2.7,11.5-3.2,16.3-1.5c4.7,1.7,8.3,5.3,10.7,10.8
				c2.6,5.8,2.7,11.7,0.4,17.4c-2.3,5.8-6.3,9.9-12,12.5c-2.1,0.9-4,1.5-5.7,1.6c-4.2,0.6-8.6-0.2-13.2-2.4
				c-4.6-2.2-7.7-4.9-9.1-8.2c-1.8-4.1-2.1-8.6-1-13.5c1.2-4.9,3.6-9.1,7.3-12.6C127,297.3,129.1,295.9,131.9,294.7z"/>
		</g>
		<g>
			<path class="st3" d="M166.4,98.7c1.2,0.3,2,0.6,2.3,0.9c0.2,0.1,0.2,0.6,0,1.3c-0.4,1.4-1.3,4-2.9,8
				c-6.4,17.2-11.4,28.5-14.8,33.8l-1.2,1.7l-6-1.6l-3.8-0.9c-1.3-0.3-2.1-0.7-2.6-1.2c-0.4-0.4-0.6-1.2-0.5-2.1
				c0.1-1,0.5-2.7,1.1-5l0.9-3.3c1.4-5.1,3-11,5-17.7c2-6.7,3.2-10.8,3.8-12.3c0.5-1.4,1-2.4,1.5-2.9c1.2-0.9,4.1-1,8.8-0.4
				C161.5,97.6,164.2,98.1,166.4,98.7z M140.3,144.6c3.1,0.8,5.3,2.3,6.6,4.4c1.3,2.1,1.5,4.5,0.8,7.3c-0.8,3-2.5,5.2-5.1,6.7
				c-2.6,1.5-5.4,1.8-8.3,1c-1.1-0.3-2-0.7-2.6-1.1c-1.8-1.1-3.2-2.7-4.3-4.9c-1.1-2.2-1.4-4.2-0.9-5.9c0.6-2.1,1.8-3.9,3.7-5.4
				c1.9-1.5,4.1-2.3,6.6-2.5C137.7,144.1,138.9,144.2,140.3,144.6z"/>
		</g>
		<g>
			<g>
				<path class="st12" d="M387.9,166.4l5.4-16c1.2-5.9,4.9-11.1,10.3-13.8c13.7-7,24.1-20,27.3-36.2c5.7-29.1-14.3-57.3-44.1-61.2
					c-25.1-3.3-49.4,12.6-56.4,37c-5,17.6-0.4,35.3,10.4,47.9c4,4.7,5.8,10.9,4.6,17l-1,16.8C358.1,161.8,373.1,165.7,387.9,166.4z"
					/>
				<path class="st2" d="M403.9,97.7c-0.3-0.5-0.9-0.7-1.4-0.4l-27.3,15.6l-17.9-24.4c-0.3-0.5-1-0.6-1.5-0.2
					c-0.5,0.3-0.6,1-0.2,1.5l18.1,24.7l-6.4,33c-0.1,0.6,0.3,1.1,0.8,1.2c0.6,0.1,1.1-0.3,1.2-0.8l6.4-32.9l27.7-15.8
					C404,98.8,404.2,98.2,403.9,97.7z"/>
				<path class="st12" d="M344.4,157.9l-0.8,14c-1.9,9.9,4.5,19.4,14.4,21.4l4.1,0.8c9.9,1.9,19.4-4.5,21.4-14.4l4.5-13.2
					C373.1,165.7,358.1,161.8,344.4,157.9z"/>
				<g>
					<path class="st2" d="M394.2,159.1l-52.8-10.3c-0.8-0.2-1.3-0.9-1.2-1.7l2.4-12.1c0.2-0.8,0.9-1.3,1.7-1.2l52.8,10.3
						c0.8,0.2,1.3,0.9,1.2,1.7l-2.4,12.1C395.7,158.8,395,159.3,394.2,159.1z"/>
					<path class="st2" d="M391.4,173.1l-52.8-10.3c-0.8-0.2-1.3-0.9-1.2-1.7l2.4-12.1c0.2-0.8,0.9-1.3,1.7-1.2l52.8,10.3
						c0.8,0.2,1.3,0.9,1.2,1.7l-2.4,12.1C393,172.7,392.2,173.2,391.4,173.1z"/>
					<path class="st2" d="M388.7,187l-52.8-10.3c-0.8-0.2-1.3-0.9-1.2-1.7l2.4-12.1c0.2-0.8,0.9-1.3,1.7-1.2l52.8,10.3
						c0.8,0.2,1.3,0.9,1.2,1.7l-2.4,12.1C390.3,186.7,389.5,187.2,388.7,187z"/>
					<path class="st12" d="M394.5,143.7c0.1,0.6,0.1,1.3,0,1.9l-1,5.4c-0.5,2.7-3.1,4.4-5.8,3.9l-46.1-9c-0.3-0.1-0.5-0.1-0.8-0.2
						c0.4,1.9,1.9,3.5,3.9,3.9l46.1,9c2.7,0.5,5.2-1.2,5.8-3.9l1-5.4C398.1,146.8,396.7,144.5,394.5,143.7z"/>
					<path class="st12" d="M391.7,157.6c0.1,0.6,0.1,1.3,0,1.9l-1,5.4c-0.5,2.7-3.1,4.4-5.8,3.9l-46.1-9c-0.3-0.1-0.5-0.1-0.8-0.2
						c0.4,1.9,1.9,3.5,3.9,3.9l46.1,9c2.7,0.5,5.2-1.2,5.8-3.9l1-5.4C395.3,160.8,394,158.4,391.7,157.6z"/>
					<path class="st12" d="M389,171.6c0.1,0.6,0.1,1.3,0,1.9l-1,5.4c-0.5,2.7-3.1,4.4-5.8,3.9l-46.1-9c-0.3-0.1-0.5-0.1-0.8-0.2
						c0.4,1.9,1.9,3.5,3.9,3.9l46.1,9c2.7,0.5,5.2-1.2,5.8-3.9l1-5.4C392.6,174.7,391.2,172.4,389,171.6z"/>
				</g>
				<g>
					<path class="st2" d="M360.7,87.4c0.6-0.9,0.8-0.7,1.5,0c1.4,1.5,0.3,0.1,0.6,1.3c0.1,0.2,0.1,0.5,0.2,0.7c0.3,0.6,1,1,1.6,1.1
						c2.3,0.4,4.3-2.7,5.7-4c0.3-0.3,0.7-0.9,1-1c0.6-0.2,0.4-0.2,0.5,0.2c0.1,0.4-0.5,1.5-0.7,1.9c-0.5,1.4-0.8,2.8-0.9,4.3
						c0,2.4,0.8,4.6,2.7,6.1c1.6,1.2,3.7,1.7,5.5,0.7c1.9-1.1,2.6-3.2,3.3-5.1c0.4-1,0.7-2.1,1.5-2.9c0.8-0.8,1.1-0.7,1.1,0.3
						c0,0.8-0.3,1.6-0.3,2.4c-0.1,2.1,1.1,4.5,3.5,4.6c1,0,1.8-0.4,2.5-1c0.7-0.6,1.2-1.9,2-2.4c1.8-1.1,4.3,4.2,6.4,1.3
						c0.4-0.5,0.1-1.1-0.6-1.1c-2.5-0.1-3.2-3.6-6-2.8c-1.4,0.4-3.4,4.1-4.7,3c-1.8-1.6,1.2-5.4-1.3-7c-1.7-1.2-3.8,0.2-4.8,1.6
						c-1.3,1.8-1.4,4.1-2.7,5.8c-2.2,3-5.2-0.5-5.3-3.1c-0.1-1.5,0.3-3.1,0.7-4.6c0.3-1.1,0.7-2.2,0.3-3.3c-0.7-1.8-2.7-1.3-3.8-0.3
						c-1.4,1.2-2.3,3.1-3.8,4.2c-0.3,0.1-0.6,0.3-0.9,0.4c-0.7,0.7-1.1,0.6-1.1-0.2c-0.4-0.8-0.1-0.5-0.3-1.1
						c-0.1-0.4-0.2-0.8-0.5-1.1c-1.1-1.4-3-1-3.7,0.6C359.8,87.3,360.4,87.8,360.7,87.4L360.7,87.4z"/>
				</g>
				<path class="st2" d="M364,53.3c1.5-1.9-0.5-4.6-2.7-3.7c-6.9,2.6-15.8,7.2-20.9,15.2c-9.4,14.5,2.6,20,10.4,8.4
					C355.4,66,359.9,58.5,364,53.3z"/>
			</g>
		</g>
	</g>
</g>
<g id="DESIGNED_BY_FREEPIK">
</g>
</svg>
