<svg xmlns="http://www.w3.org/2000/svg" width="1200" height="628" viewBox="0 0 1200 628">
  <g id="Grupo_103" data-name="Grupo 103" transform="translate(963 866)">
    <rect id="Retângulo_26" data-name="Retângulo 26" width="1200" height="628" transform="translate(-963 -866)" fill="#d8def6"/>
    <g id="photo" transform="translate(-481 -695)">
      <g id="Grupo_100" data-name="Grupo 100" transform="translate(0 48)">
        <g id="Grupo_99" data-name="Grupo 99" transform="translate(0 0)">
          <path id="Caminho_70" data-name="Caminho 70" d="M223.854,48H34.147A11.382,11.382,0,0,0,22.765,59.382v3.794A11.382,11.382,0,0,0,11.382,74.559v3.794A11.382,11.382,0,0,0,0,89.735V226.324a11.382,11.382,0,0,0,11.382,11.382H201.089a11.382,11.382,0,0,0,11.382-11.382V222.53a11.382,11.382,0,0,0,11.382-11.382v-3.794a11.382,11.382,0,0,0,11.382-11.382V59.382A11.382,11.382,0,0,0,223.854,48ZM204.883,226.324a3.794,3.794,0,0,1-3.794,3.794H11.382a3.794,3.794,0,0,1-3.794-3.794V128.436L68.962,217.1a3.794,3.794,0,0,0,6.238,0l65.183-94.14,64.5,93.169Zm0-23.524L143.5,114.136a3.938,3.938,0,0,0-6.238,0l-65.172,94.14-64.5-93.169V89.735a3.794,3.794,0,0,1,3.794-3.794H201.089a3.794,3.794,0,0,1,3.794,3.794Zm11.382,8.347a3.794,3.794,0,0,1-3.794,3.794V89.735a11.382,11.382,0,0,0-11.382-11.382H18.971V74.559a3.794,3.794,0,0,1,3.794-3.794H212.471a3.794,3.794,0,0,1,3.794,3.794Zm11.382-15.177a3.794,3.794,0,0,1-3.794,3.794V74.559a11.382,11.382,0,0,0-11.382-11.382H30.353V59.382a3.794,3.794,0,0,1,3.794-3.794H223.854a3.794,3.794,0,0,1,3.794,3.794Z" transform="translate(0 -48)" fill="#727a9b"/>
        </g>
      </g>
      <g id="Grupo_102" data-name="Grupo 102" transform="translate(15.177 93.53)">
        <g id="Grupo_101" data-name="Grupo 101" transform="translate(0 0)">
          <path id="Caminho_71" data-name="Caminho 71" d="M47.177,144a15.177,15.177,0,1,0,15.177,15.177A15.177,15.177,0,0,0,47.177,144Zm0,22.765a7.588,7.588,0,1,1,7.588-7.588A7.588,7.588,0,0,1,47.177,166.765Z" transform="translate(-32 -144)" fill="#727a9b"/>
        </g>
      </g>
    </g>
  </g>
</svg>
