<svg xmlns="http://www.w3.org/2000/svg" width="78.335" height="108.717" viewBox="0 0 78.335 108.717"><g transform="translate(-50.906 -25.947)"><path d="M106.6,107.748a1.27,1.27,0,0,1-1.152-.736l-4.585-9.884a22.1,22.1,0,1,1,11.474,0l-4.585,9.884A1.27,1.27,0,0,1,106.6,107.748Zm0-51.52a19.558,19.558,0,0,0-4.545,38.58,1.27,1.27,0,0,1,.858.7l3.687,7.95,3.687-7.949a1.27,1.27,0,0,1,.858-.7A19.558,19.558,0,0,0,106.6,56.229Z" transform="translate(-16.528 -13.647)" fill="#fa496f"/><g transform="translate(54.962 25.947)"><path d="M94,25.947A35.152,35.152,0,0,0,58.89,61.059c0,24.576,32.719,66.557,34.113,68.332a1.271,1.271,0,0,0,1,.486h0a1.271,1.271,0,0,0,1-.482c1.393-1.761,34.116-43.421,34.116-68.335A35.152,35.152,0,0,0,94,25.947Zm0,100.577c-5.572-7.355-32.575-44.1-32.575-65.465a32.572,32.572,0,1,1,65.143,0C126.573,82.715,99.587,119.208,94.005,126.524Z" transform="translate(-58.89 -25.947)" fill="#8274e6"/><path d="M124.046,76.794a4.372,4.372,0,0,0-3.113,1.29l-9.171,9.171L107.6,83.091a4.4,4.4,0,1,0-6.227,6.227l7.278,7.279a4.4,4.4,0,0,0,6.227,0l12.285-12.285a4.4,4.4,0,0,0-3.113-7.517Zm1.317,5.721L113.079,94.8a1.908,1.908,0,0,1-2.635,0l-7.278-7.279a1.863,1.863,0,0,1,2.635-2.635l5.063,5.063a1.27,1.27,0,0,0,1.8,0l10.07-10.07a1.909,1.909,0,0,1,2.635,0,1.863,1.863,0,0,1,0,2.635Z" transform="translate(-79.153 -50.961)" fill="#8274e6"/></g><path d="M90.074,228.5a226.922,226.922,0,0,1-26.957-1.412c-10.732-1.355-12.211-3.034-12.211-4.645,0-1.121,0-4.532,25.827-5.753a1.27,1.27,0,0,1,.12,2.537c-14.135.668-21.27,2.214-23.089,3.221,2.683,1.534,16.064,3.512,36.31,3.512s33.627-1.977,36.31-3.512c-1.819-1.007-8.955-2.552-23.089-3.221a1.27,1.27,0,0,1,.12-2.537c25.827,1.221,25.827,4.632,25.827,5.753,0,1.612-1.479,3.29-12.211,4.645A226.891,226.891,0,0,1,90.074,228.5Z" transform="translate(0 -93.831)" fill="#fa496f"/></g></svg>