<svg xmlns="http://www.w3.org/2000/svg" width="22.668" height="21.888" viewBox="0 0 22.668 21.888"><g transform="translate(-312.91 -127.839)"><path d="M1653.074,130.619l2.27-.218H1657l2.459-2.053,2.98,2.271,3.689-.218.9,3.537,3.122,1.922-1.419,3.057,1.419,3.057-3.405,2.009-.946,3.581-3.358-.48-2.98,2.184-2.838-1.965-3.736.262-1.277-3.363-3.216-2.227,1.608-3.319-1.608-2.8,3.547-2.358Z" transform="translate(-1335.121 -0.128)" fill="#5c79e4"/><g transform="translate(312.91 127.839)"><g transform="translate(0 0)"><path d="M31.934,11.225a.6.6,0,0,1,0-.567l.881-1.67a1.835,1.835,0,0,0-.885-2.523l-1.772-.871a.647.647,0,0,1-.36-.459L29.452,3.3a2.037,2.037,0,0,0-2.317-1.559l-1.987.26a.728.728,0,0,1-.582-.175L23.125.538a2.169,2.169,0,0,0-2.864,0L18.819,1.83a.728.728,0,0,1-.582.175l-1.987-.26A2.037,2.037,0,0,0,13.934,3.3l-.347,1.831a.647.647,0,0,1-.36.459l-1.772.871a1.835,1.835,0,0,0-.885,2.523l.881,1.67a.6.6,0,0,1,0,.567l-.881,1.67a1.835,1.835,0,0,0,.885,2.523l1.772.871a.647.647,0,0,1,.36.459l.347,1.831a2.012,2.012,0,0,0,2.022,1.579,2.272,2.272,0,0,0,.3-.019l1.987-.26a.727.727,0,0,1,.582.175l1.442,1.292a2.169,2.169,0,0,0,2.864,0l1.442-1.292a.728.728,0,0,1,.582-.175l1.987.26a2.037,2.037,0,0,0,2.317-1.559l.347-1.831a.647.647,0,0,1,.36-.459l1.772-.871a1.835,1.835,0,0,0,.885-2.523ZM31.292,14.3l-1.772.871a1.912,1.912,0,0,0-1.063,1.356l-.347,1.831a.689.689,0,0,1-.784.528l-1.987-.26a2.15,2.15,0,0,0-1.72.518l-1.442,1.292a.734.734,0,0,1-.969,0l-1.442-1.292a2.132,2.132,0,0,0-1.427-.537,2.255,2.255,0,0,0-.293.019l-1.987.26a.689.689,0,0,1-.784-.528L14.93,16.53a1.912,1.912,0,0,0-1.063-1.356L12.094,14.3a.621.621,0,0,1-.3-.854l.881-1.67a1.771,1.771,0,0,0,0-1.676l-.881-1.67a.621.621,0,0,1,.3-.854l1.772-.871A1.912,1.912,0,0,0,14.93,5.354l.347-1.831A.689.689,0,0,1,16.06,3l1.987.26a2.151,2.151,0,0,0,1.72-.518l1.442-1.292a.734.734,0,0,1,.969,0l1.442,1.292a2.15,2.15,0,0,0,1.72.518L27.326,3a.689.689,0,0,1,.784.528l.347,1.831A1.912,1.912,0,0,0,29.52,6.709l1.772.871a.621.621,0,0,1,.3.854L30.71,10.1a1.771,1.771,0,0,0,0,1.676l.881,1.67A.621.621,0,0,1,31.292,14.3Z" transform="translate(-10.359 0.002)" fill="#1c2e40"/></g><g transform="translate(6.429 6.039)"><path d="M153.413,143.981a.645.645,0,0,0-.913,0l-8.519,8.519a.645.645,0,1,0,.913.913l8.519-8.519A.645.645,0,0,0,153.413,143.981Z" transform="translate(-143.791 -143.791)" fill="#1c2e40"/></g><g transform="translate(6.202 5.231)"><path d="M145.169,123.116a2.367,2.367,0,1,0,2.367,2.367A2.369,2.369,0,0,0,145.169,123.116Zm0,3.442a1.076,1.076,0,1,1,1.076-1.076A1.077,1.077,0,0,1,145.169,126.558Z" transform="translate(-142.802 -123.116)" fill="#1c2e40"/></g><g transform="translate(11.733 11.923)"><path d="M263.289,280.61a2.367,2.367,0,1,0,2.367,2.367A2.369,2.369,0,0,0,263.289,280.61Zm0,3.442a1.076,1.076,0,1,1,1.076-1.076A1.077,1.077,0,0,1,263.289,284.052Z" transform="translate(-260.922 -280.61)" fill="#1c2e40"/></g></g></g></svg>