<svg xmlns="http://www.w3.org/2000/svg" xmlns:xlink="http://www.w3.org/1999/xlink" width="120.12" height="120.119" viewBox="0 0 120.12 120.119">
  <defs>
    <linearGradient id="linear-gradient" x1="0.5" y1="2.881" x2="0.5" y2="-1.749" gradientUnits="objectBoundingBox">
      <stop offset="0" stop-color="#7177e6"/>
      <stop offset="1" stop-color="#00acea"/>
    </linearGradient>
  </defs>
  <g id="Grupo_100" data-name="Grupo 100" transform="translate(-1822.217 131.784)">
    <g id="sad" transform="translate(1822.217 -131.785)">
      <path id="Caminho_70" data-name="Caminho 70" d="M313.1,196.624a12.8,12.8,0,1,0,12.8,12.8h0A12.8,12.8,0,0,0,313.1,196.624ZM306.7,217.1a2.56,2.56,0,1,1,2.56-2.56A2.56,2.56,0,0,1,306.7,217.1Zm8.959-6.4a5.119,5.119,0,1,1,5.119-5.119h0a5.118,5.118,0,0,1-5.116,5.119Z" transform="translate(-226.166 -148.081)" fill="url(#linear-gradient)"/>
      <g id="Grupo_99" data-name="Grupo 99" transform="translate(0 0.001)">
        <path id="Caminho_71" data-name="Caminho 71" d="M108.175,209.421a12.8,12.8,0,1,0-12.8,12.8h0A12.8,12.8,0,0,0,108.175,209.421Zm-19.2,7.678a2.56,2.56,0,1,1,2.56-2.56,2.56,2.56,0,0,1-2.56,2.56Zm8.959-6.4a5.119,5.119,0,1,1,5.119-5.119h0a5.118,5.118,0,0,1-5.115,5.12h0Z" transform="translate(-62.192 -148.081)" fill="#3f8ee7"/>
        <path id="Caminho_72" data-name="Caminho 72" d="M60.061,0a60.06,60.06,0,1,0,42.468,17.592A60.058,60.058,0,0,0,60.061,0Zm0,115.183a55.123,55.123,0,1,1,55.123-55.123A55.185,55.185,0,0,1,60.061,115.184Z" transform="translate(0 -0.001)" fill="#5c79e4"/>
        <path id="Caminho_73" data-name="Caminho 73" d="M95.941,159.336l-.417-4.92a14.591,14.591,0,0,0-10.807,6.279l4.065,2.805a9.671,9.671,0,0,1,7.159-4.164Z" transform="translate(-63.802 -116.294)" fill="#3e8ee7"/>
        <path id="Caminho_74" data-name="Caminho 74" d="M356.8,154.416l-.417,4.92a9.672,9.672,0,0,1,7.161,4.164l4.063-2.805a14.589,14.589,0,0,0-10.808-6.279Z" transform="translate(-268.399 -116.294)" fill="#3e8ee7"/>
        <path id="Caminho_75" data-name="Caminho 75" d="M196.955,331.575a6.651,6.651,0,0,0-10.931.006c-.871.978-1.138,1.206-1.776,1.206s-.916-.23-1.792-1.212a6.65,6.65,0,0,0-10.929,0c-.871.979-1.139,1.207-1.778,1.207s-.906-.229-1.778-1.206a6.646,6.646,0,0,0-10.929,0c-.871.98-1.268,1.207-1.762,1.207v4.938a6.828,6.828,0,0,0,5.45-2.864c.871-.979,1.131-1.207,1.77-1.207s.913.23,1.789,1.212a6.647,6.647,0,0,0,10.927-.006c.871-.979,1.139-1.207,1.778-1.207s.907.228,1.778,1.206a6.661,6.661,0,0,0,10.942.006c.876-.982,1.146-1.212,1.793-1.212s.891.228,1.762,1.206a6.861,6.861,0,0,0,5.463,2.864v-4.938c-.493,0-.9-.228-1.777-1.21Z" transform="translate(-116.946 -247.564)" fill="#3e8ee7"/>
      </g>
    </g>
  </g>
</svg>
