<svg xmlns="http://www.w3.org/2000/svg" width="113.034" height="113.034" viewBox="0 0 113.034 113.034"><g transform="translate(0)"><path d="M113.034,56.517A56.518,56.518,0,0,1,58.5,113,44.05,44.05,0,0,0,19.045,88.531H9.934a56.519,56.519,0,1,1,103.1-32.013Z" transform="translate(0 0)" fill="#3eca85"/><path d="M163.633,66.816A44.816,44.816,0,1,1,118.816,22,44.816,44.816,0,0,1,163.633,66.816Z" transform="translate(-57.663 -17.143)" fill="#71ecaf"/><path d="M280.929,20.973V37.616a20.973,20.973,0,0,1-20.973,20.973H246.721L240.6,65.733a1.426,1.426,0,0,1-2.455-1.32l1.664-5.824h-3.372a20.973,20.973,0,0,1-20.973-20.973V20.973A20.973,20.973,0,0,1,236.435,0h23.52a20.973,20.973,0,0,1,20.973,20.973Z" transform="translate(-167.895 0)" fill="#fa496f"/><path d="M265,37.616V20.973A20.973,20.973,0,0,1,285.973,0h12.584A20.973,20.973,0,0,1,319.53,20.973V37.616a20.973,20.973,0,0,1-20.973,20.973H285.973A20.973,20.973,0,0,1,265,37.616Z" transform="translate(-206.496 0)" fill="#ff7794"/><path d="M283.377,83.731,286.5,80.61a3.311,3.311,0,0,1,5.619,1.851,8.831,8.831,0,0,1-14.984,7.514L261.522,74.364A8.831,8.831,0,1,1,274.01,61.876l-6.245,6.244Z" transform="translate(-201.77 -46.2)" fill="#fccfc9"/><path d="M283.919,47.626a3.311,3.311,0,0,1,0,4.683l-3.9,3.9-9.366-9.367,3.9-3.9a3.311,3.311,0,0,1,4.683,0Zm24.67-1.554h-4.415V41.656a1.656,1.656,0,0,0-3.312,0v4.415h-4.415a1.656,1.656,0,1,0,0,3.312h4.415V53.8a1.656,1.656,0,0,0,3.312,0V49.383h4.415a1.656,1.656,0,0,0,0-3.312Zm-10.621,15.6a3.311,3.311,0,0,0-4.683,0l-3.9,3.9,9.366,9.366,3.9-3.9a3.311,3.311,0,0,0,0-4.683Z" transform="translate(-210.899 -31.169)" fill="#fff5f5"/><path d="M50.454,172.142v4.415a3.312,3.312,0,0,1-3.312,3.312H38.312A3.312,3.312,0,0,1,35,176.558v-4.415a3.312,3.312,0,0,1,3.312-3.312h8.831A3.312,3.312,0,0,1,50.454,172.142Zm-12.142-5.519h8.831a3.312,3.312,0,1,0,0-6.623H38.312a3.312,3.312,0,1,0,0,6.623Z" transform="translate(-27.273 -124.677)" fill="#5c79e4"/><path d="M93.569,143.312v78.78q-.989.034-1.987.034-1.941,0-3.85-.129c-.317-.021-2.679-2.6-2.994-2.63C61.046,217.375,45,199.875,45,176.1V143.311A3.312,3.312,0,0,1,48.312,140H90.258a3.312,3.312,0,0,1,3.312,3.312Z" transform="translate(-35.066 -109.092)" fill="#5c79e4"/><path d="M48.312,140h8.831a3.312,3.312,0,0,0-3.312,3.312v59.911a1.878,1.878,0,0,1-3.236,1.3,56.779,56.779,0,0,1-5.595-6.9V143.312A3.312,3.312,0,0,1,48.312,140Z" transform="translate(-35.066 -109.092)" fill="#5c79e4"/><path d="M107.531,192.312V260.2A56.355,56.355,0,0,1,70,242.624V192.312A3.312,3.312,0,0,1,73.312,189h30.908A3.312,3.312,0,0,1,107.531,192.312Z" transform="translate(-54.546 -147.274)" fill="#71ecaf"/><path d="M110.682,245.979l-.267-.216A14.805,14.805,0,0,1,105,234.286V191h26.492a3.312,3.312,0,0,1,3.312,3.312v40.036c0,12.447-14.432,19.444-24.122,11.631Z" transform="translate(-81.819 -148.833)" fill="#fff5f5"/><path d="M110.944,233.312H89.964a1.652,1.652,0,0,1-1.652-1.652v-.006A1.652,1.652,0,0,1,89.964,230h20.98a1.652,1.652,0,0,1,1.652,1.652v.006A1.652,1.652,0,0,1,110.944,233.312Zm-10.49,9.935a4.415,4.415,0,1,0,4.415,4.415A4.415,4.415,0,0,0,100.454,243.247Zm15.454,4.415a4.415,4.415,0,1,1-4.415-4.415A4.415,4.415,0,0,1,115.908,247.662ZM93.831,258.7a4.415,4.415,0,1,1-4.415-4.415A4.415,4.415,0,0,1,93.831,258.7Zm11.038,0a4.415,4.415,0,1,1-4.415-4.415A4.415,4.415,0,0,1,104.869,258.7ZM93.831,269.739a4.415,4.415,0,1,1-4.415-4.415A4.415,4.415,0,0,1,93.831,269.739Zm11.038,0a4.415,4.415,0,1,1-4.415-4.415A4.415,4.415,0,0,1,104.869,269.739Zm0,11.038a4.415,4.415,0,1,1-4.415-4.415A4.415,4.415,0,0,1,104.869,280.778Zm1.659-41.394H94.38a1.652,1.652,0,0,1-1.652-1.652v-.006a1.652,1.652,0,0,1,1.652-1.652h12.149a1.652,1.652,0,0,1,1.652,1.652v.006A1.652,1.652,0,0,1,106.528,239.383Z" transform="translate(-66.235 -179.224)" fill="#f98ca4"/><path d="M93.831,294.415A4.415,4.415,0,1,1,89.415,290,4.415,4.415,0,0,1,93.831,294.415Zm17.662,15.454a4.415,4.415,0,1,0-4.415-4.415A4.415,4.415,0,0,0,111.492,309.869Zm0,2.208a4.415,4.415,0,1,0,4.415,4.415A4.415,4.415,0,0,0,111.492,312.077Z" transform="translate(-66.235 -225.977)" fill="#fa496f"/><path d="M107.531,178.831H70v-5.519A3.312,3.312,0,0,1,73.312,170h30.908a3.312,3.312,0,0,1,3.312,3.312Z" transform="translate(-54.546 -132.469)" fill="#f98ca4"/><path d="M88.312,186.656A1.656,1.656,0,1,1,86.656,185,1.656,1.656,0,0,1,88.312,186.656ZM114.252,185a1.656,1.656,0,1,0,1.656,1.656A1.656,1.656,0,0,0,114.252,185Z" transform="translate(-66.235 -144.158)" fill="#fa496f"/><path d="M139.415,153.246A4.415,4.415,0,0,1,135,148.831v-5.519A3.312,3.312,0,0,1,138.312,140h2.208a3.312,3.312,0,0,1,3.312,3.312v5.519A4.415,4.415,0,0,1,139.415,153.246Z" transform="translate(-105.196 -109.092)" fill="#5c79e4"/><path d="M150.812,171.656A1.656,1.656,0,1,1,149.156,170,1.656,1.656,0,0,1,150.812,171.656Z" transform="translate(-114.937 -132.469)" fill="#60c8dd"/><path d="M330,329.759a1.656,1.656,0,0,1,1.656-1.656h1.1V327a1.656,1.656,0,0,1,3.312,0v1.1h1.1a1.656,1.656,0,0,1,0,3.312h-1.1v1.1a1.656,1.656,0,1,1-3.312,0v-1.1h-1.1A1.656,1.656,0,0,1,330,329.759Z" transform="translate(-257.146 -253.518)" fill="#fa496f"/><path d="M390,369.759a1.656,1.656,0,0,1,1.656-1.656h1.1V367a1.656,1.656,0,0,1,3.312,0v1.1h1.1a1.656,1.656,0,1,1,0,3.312h-1.1v1.1a1.656,1.656,0,0,1-3.312,0v-1.1h-1.1A1.656,1.656,0,0,1,390,369.759Z" transform="translate(-303.9 -284.687)" fill="#fff5f5"/></g></svg>