<svg xmlns="http://www.w3.org/2000/svg" width="19.643" height="27.036" viewBox="0 0 19.643 27.036"><g transform="translate(-70)"><g transform="translate(70.528 0.528)"><path d="M97.719,17.782a1.248,1.248,0,0,1-.373-1.392,1.968,1.968,0,0,0,0-1.743,1.969,1.969,0,0,0-1.508-.874,1.248,1.248,0,0,1-1.019-1.019,1.969,1.969,0,0,0-.874-1.508,2,2,0,0,0-1.743,0,1.241,1.241,0,0,1-1.392-.373,1.749,1.749,0,0,0-3.023,0,1.242,1.242,0,0,1-1.392.373,2.005,2.005,0,0,0-1.743,0,1.969,1.969,0,0,0-.874,1.508,1.248,1.248,0,0,1-1.019,1.019,1.969,1.969,0,0,0-1.508.874,1.968,1.968,0,0,0,0,1.743,1.248,1.248,0,0,1-.373,1.392A1.97,1.97,0,0,0,80,19.294a1.97,1.97,0,0,0,.869,1.511,1.248,1.248,0,0,1,.373,1.392,1.749,1.749,0,0,0,1.511,2.618,1.248,1.248,0,0,1,1.019,1.019,1.749,1.749,0,0,0,2.618,1.511,1.242,1.242,0,0,1,1.392.373,1.749,1.749,0,0,0,3.023,0,1.242,1.242,0,0,1,1.392-.373,1.747,1.747,0,0,0,2.618-1.511,1.248,1.248,0,0,1,1.019-1.019A1.749,1.749,0,0,0,97.345,22.2a1.248,1.248,0,0,1,.373-1.392,1.97,1.97,0,0,0,.869-1.511A1.97,1.97,0,0,0,97.719,17.782Z" transform="translate(-80 -10)" fill="#8274e6"/><g transform="translate(0.845 5.808)"><path d="M260.756,334.164,258.483,334,256,335.478l4.224,7.393,1.056-3.168h3.168Z" transform="translate(-247.551 -322.7)" fill="#fa496f"/><path d="M182.337,120a2.181,2.181,0,0,1,2.112,2.315c0,1.736-1.719,2.886-4.224,5.078-2.506-2.192-4.224-3.341-4.224-5.078A2.181,2.181,0,0,1,178.112,120c1.605,0,2.112,1.848,2.112,1.848S180.731,120,182.337,120Z" transform="translate(-171.776 -120)" fill="#fa496f"/><path d="M99.693,334.164,96,339.7h3.168l1.056,3.168,4.224-7.393L102.125,334Z" transform="translate(-96 -322.7)" fill="#fa496f"/></g></g><g transform="translate(70)"><path d="M172.865,110a2.508,2.508,0,0,0-2.112,1.177A2.508,2.508,0,0,0,168.64,110a2.705,2.705,0,0,0-2.64,2.843c0,1.714,1.319,2.837,3.315,4.538.348.3.708.6,1.09.937a.528.528,0,0,0,.7,0c.382-.334.742-.641,1.09-.937,2-1.7,3.315-2.824,3.315-4.538A2.705,2.705,0,0,0,172.865,110Zm-1.36,6.577c-.244.208-.493.42-.752.644-.259-.224-.509-.437-.752-.644-1.836-1.564-2.944-2.508-2.944-3.734a1.657,1.657,0,0,1,1.584-1.787c1.174,0,1.585,1.4,1.6,1.461a.528.528,0,0,0,1.018,0c0-.015.414-1.46,1.6-1.46a1.657,1.657,0,0,1,1.584,1.787C174.449,114.069,173.341,115.013,171.5,116.577Z" transform="translate(-160.931 -104.191)" fill="#1c2e40"/><path d="M71.066,7.9A2.467,2.467,0,0,0,70,9.822a2.467,2.467,0,0,0,1.066,1.923.718.718,0,0,1,.212.79,2.465,2.465,0,0,0,.038,2.2A2.465,2.465,0,0,0,73.2,15.865a.717.717,0,0,1,.578.578,2.853,2.853,0,0,0,.6,1.438l-3.444,5.166a.528.528,0,0,0,.439.821h2.788l.936,2.807a.528.528,0,0,0,.959.095l3.766-6.59,3.766,6.59a.528.528,0,0,0,.959-.095l.936-2.807H88.27a.528.528,0,0,0,.439-.821l-3.444-5.166a2.851,2.851,0,0,0,.6-1.438.718.718,0,0,1,.578-.578,2.466,2.466,0,0,0,1.885-1.132,2.465,2.465,0,0,0,.038-2.2.718.718,0,0,1,.212-.79,2.467,2.467,0,0,0,1.066-1.923A2.467,2.467,0,0,0,88.577,7.9a.718.718,0,0,1-.212-.79,2.465,2.465,0,0,0-.038-2.2,2.466,2.466,0,0,0-1.885-1.132.717.717,0,0,1-.578-.578,2.466,2.466,0,0,0-1.132-1.885,2.5,2.5,0,0,0-2.2-.038.716.716,0,0,1-.79-.212,2.267,2.267,0,0,0-3.846,0,.717.717,0,0,1-.79.212,2.5,2.5,0,0,0-2.2.038A2.466,2.466,0,0,0,73.779,3.2a.717.717,0,0,1-.578.578,2.466,2.466,0,0,0-1.885,1.132,2.465,2.465,0,0,0-.038,2.2A.718.718,0,0,1,71.066,7.9ZM75.725,25.22,75.119,23.4l1.776-2.96a.528.528,0,0,0-.906-.543l-1.747,2.912H72.36l2.887-4.331a2.675,2.675,0,0,0,1.862-.115.718.718,0,0,1,.79.212,2.957,2.957,0,0,0,1.11.9ZM85.4,22.812,83.654,19.9a.528.528,0,0,0-.906.543l1.776,2.96-.606,1.817-3.284-5.747a2.958,2.958,0,0,0,1.11-.9.717.717,0,0,1,.79-.212,2.679,2.679,0,0,0,1.862.115l2.887,4.331ZM71.727,8.722a1.765,1.765,0,0,0,.535-2,1.48,1.48,0,0,1-.032-1.288,1.481,1.481,0,0,1,1.132-.617,1.765,1.765,0,0,0,1.46-1.46,1.48,1.48,0,0,1,.617-1.131,1.481,1.481,0,0,1,1.288.032,1.764,1.764,0,0,0,1.995-.535,1.236,1.236,0,0,1,2.2,0,1.763,1.763,0,0,0,2,.535A1.48,1.48,0,0,1,84.2,2.23a1.481,1.481,0,0,1,.617,1.132,1.765,1.765,0,0,0,1.46,1.46,1.48,1.48,0,0,1,1.132.617,1.48,1.48,0,0,1-.032,1.288,1.765,1.765,0,0,0,.535,1.995,1.482,1.482,0,0,1,.672,1.1,1.482,1.482,0,0,1-.671,1.1,1.765,1.765,0,0,0-.535,2,1.48,1.48,0,0,1,.032,1.288,1.481,1.481,0,0,1-1.132.617,1.765,1.765,0,0,0-1.46,1.46c-.173,1.115-.815,1.522-1.9,1.1a1.764,1.764,0,0,0-1.995.535,1.236,1.236,0,0,1-2.2,0,1.764,1.764,0,0,0-2-.535c-1.1.429-1.734,0-1.9-1.1a1.765,1.765,0,0,0-1.46-1.46,1.48,1.48,0,0,1-1.132-.617,1.48,1.48,0,0,1,.032-1.288,1.765,1.765,0,0,0-.535-1.995,1.482,1.482,0,0,1-.672-1.1,1.482,1.482,0,0,1,.671-1.1Z" transform="translate(-70)" fill="#1c2e40"/><circle cx="0.5" cy="0.5" r="0.5" transform="translate(13.822 13.518)" fill="#1c2e40"/><path d="M127.181,64.363a7.106,7.106,0,0,0,3.043-.677.528.528,0,1,0-.449-.956,6.058,6.058,0,0,1-2.594.577,6.125,6.125,0,1,1,6.125-6.125,6.065,6.065,0,0,1-.52,2.469.528.528,0,0,0,.966.427,7.115,7.115,0,0,0,.61-2.9,7.181,7.181,0,1,0-7.181,7.181Z" transform="translate(-117.36 -47.36)" fill="#1c2e40"/></g></g></svg>